# Blender v2.79 (sub 0) OBJ File: ''
# www.blender.org
mtllib adorno.mtl
o adorno1_Cube.051
v -1.662186 0.989187 -0.684816
v -1.649169 0.989187 -0.683534
v -1.636652 0.989187 -0.679737
v -1.625116 0.989187 -0.673571
v -1.615005 0.989187 -0.665272
v -1.606706 0.989187 -0.655161
v -1.600540 0.989187 -0.643625
v -1.596743 0.989187 -0.631108
v -1.595461 0.989187 -0.618091
v -1.662186 1.122638 -0.618091
v -1.596743 0.989187 -0.605073
v -1.600540 0.989187 -0.592556
v -1.606706 0.989187 -0.581020
v -1.615005 0.989187 -0.570909
v -1.625116 0.989187 -0.562611
v -1.636652 0.989187 -0.556445
v -1.649169 0.989187 -0.552648
v -1.662186 0.989187 -0.551365
v -1.675204 0.989187 -0.552648
v -1.687721 0.989187 -0.556445
v -1.699257 0.989187 -0.562611
v -1.709368 0.989187 -0.570909
v -1.717666 0.989187 -0.581020
v -1.723832 0.989187 -0.592556
v -1.727629 0.989187 -0.605073
v -1.728912 0.989187 -0.618091
v -1.727629 0.989187 -0.631108
v -1.723832 0.989187 -0.643625
v -1.717666 0.989187 -0.655161
v -1.709368 0.989187 -0.665273
v -1.699257 0.989187 -0.673571
v -1.687721 0.989187 -0.679737
v -1.675204 0.989187 -0.683534
v -1.728426 0.851799 -0.549007
v -1.728426 0.991086 -0.549007
v -1.728426 0.851799 -0.688294
v -1.728426 0.991086 -0.688294
v -1.589139 0.851799 -0.549007
v -1.589139 0.991086 -0.549007
v -1.589139 0.851799 -0.688294
v -1.589139 0.991086 -0.688294
vn -0.2599 0.4455 -0.8567
vn 0.0878 0.4455 -0.8910
vn -0.4220 0.4455 -0.7896
vn -0.5680 0.4455 -0.6921
vn -0.6921 0.4455 -0.5680
vn -0.7896 0.4455 -0.4220
vn -0.8567 0.4455 -0.2599
vn -0.8910 0.4455 -0.0878
vn -0.8910 0.4455 0.0878
vn -0.8567 0.4455 0.2599
vn -0.7896 0.4455 0.4220
vn -0.6921 0.4455 0.5680
vn -0.5680 0.4455 0.6921
vn -0.4220 0.4455 0.7896
vn -0.2599 0.4455 0.8567
vn -0.0878 0.4455 0.8910
vn 0.0878 0.4455 0.8910
vn 0.2599 0.4455 0.8567
vn 0.4220 0.4455 0.7896
vn 0.5680 0.4455 0.6921
vn 0.6921 0.4455 0.5680
vn 0.7896 0.4455 0.4220
vn 0.8567 0.4455 0.2599
vn 0.8910 0.4455 0.0878
vn 0.8910 0.4455 -0.0878
vn 0.8567 0.4455 -0.2599
vn 0.7896 0.4455 -0.4220
vn 0.6921 0.4455 -0.5680
vn 0.5680 0.4455 -0.6921
vn 0.4220 0.4455 -0.7896
vn -0.0878 0.4455 -0.8910
vn 0.2599 0.4455 -0.8567
vn 0.0000 -1.0000 -0.0000
vn -1.0000 0.0000 0.0000
vn 0.0000 0.0000 -1.0000
vn 1.0000 0.0000 0.0000
vn 0.0000 0.0000 1.0000
vn 0.0000 1.0000 0.0000
usemtl Material.064
s off
f 32//1 10//1 33//1
f 1//2 10//2 2//2
f 31//3 10//3 32//3
f 30//4 10//4 31//4
f 29//5 10//5 30//5
f 28//6 10//6 29//6
f 27//7 10//7 28//7
f 26//8 10//8 27//8
f 25//9 10//9 26//9
f 24//10 10//10 25//10
f 23//11 10//11 24//11
f 22//12 10//12 23//12
f 21//13 10//13 22//13
f 20//14 10//14 21//14
f 19//15 10//15 20//15
f 18//16 10//16 19//16
f 17//17 10//17 18//17
f 16//18 10//18 17//18
f 15//19 10//19 16//19
f 14//20 10//20 15//20
f 13//21 10//21 14//21
f 12//22 10//22 13//22
f 11//23 10//23 12//23
f 9//24 10//24 11//24
f 8//25 10//25 9//25
f 7//26 10//26 8//26
f 6//27 10//27 7//27
f 5//28 10//28 6//28
f 4//29 10//29 5//29
f 3//30 10//30 4//30
f 33//31 10//31 1//31
f 2//32 10//32 3//32
f 1//33 2//33 3//33 4//33 5//33 6//33 7//33 8//33 9//33 11//33 12//33 13//33 14//33 15//33 16//33 17//33 18//33 19//33 20//33 21//33 22//33 23//33 24//33 25//33 26//33 27//33 28//33 29//33 30//33 31//33 32//33 33//33
f 35//34 37//34 36//34 34//34
f 37//35 41//35 40//35 36//35
f 41//36 39//36 38//36 40//36
f 39//37 35//37 34//37 38//37
f 34//33 36//33 40//33 38//33
f 39//38 41//38 37//38 35//38
