# Blender v2.79 (sub 0) OBJ File: ''
# www.blender.org
mtllib asientos.mtl
o asientos_Cube.023
v 2.379984 0.000000 -3.393415
v 2.379984 0.800000 -3.393415
v 1.379984 0.000000 -3.393415
v 1.379984 0.800000 -3.393415
v 2.379984 0.000000 -6.393415
v 2.379984 0.800000 -6.393415
v 1.379983 0.000000 -6.393415
v 1.379983 0.800000 -6.393415
v -2.401763 0.000000 -6.353993
v -2.401763 0.800000 -6.353993
v -2.401763 0.000000 -7.353993
v -2.401763 0.800000 -7.353993
v 2.398237 0.000000 -6.353993
v 2.398237 0.800000 -6.353993
v 2.398237 0.000000 -7.353993
v 2.398237 0.800000 -7.353993
vn 0.0000 0.0000 1.0000
vn -1.0000 0.0000 0.0000
vn 0.0000 0.0000 -1.0000
vn 1.0000 0.0000 0.0000
vn 0.0000 -1.0000 0.0000
vn 0.0000 1.0000 0.0000
usemtl Material.052
s off
f 2//1 4//1 3//1 1//1
f 4//2 8//2 7//2 3//2
f 8//3 6//3 5//3 7//3
f 6//4 2//4 1//4 5//4
f 1//5 3//5 7//5 5//5
f 6//6 8//6 4//6 2//6
f 10//2 12//2 11//2 9//2
f 12//3 16//3 15//3 11//3
f 16//4 14//4 13//4 15//4
f 14//1 10//1 9//1 13//1
f 9//5 11//5 15//5 13//5
f 14//6 16//6 12//6 10//6
