# Blender v2.79 (sub 0) OBJ File: ''
# www.blender.org
mtllib caminito.mtl
o caminito_Cube.017
v -8.044485 -0.000000 -9.283790
v -8.044485 0.060000 -9.283790
v -8.044485 -0.000000 -10.783790
v -8.044485 0.060000 -10.783790
v 9.955516 -0.000000 -9.283790
v 9.955516 0.060000 -9.283790
v 9.955516 -0.000000 -10.783790
v 9.955516 0.060000 -10.783790
v -10.062513 -0.000000 9.168648
v -10.062513 0.060000 9.168648
v -10.062513 -0.000000 -10.831353
v -10.062513 0.060000 -10.831353
v -8.062513 -0.000000 9.168648
v -8.062513 0.060000 9.168648
v -8.062513 -0.000000 -10.831353
v -8.062513 0.060000 -10.831353
v 11.074313 -0.000000 10.192729
v 11.074313 0.060000 10.192729
v 11.074313 -0.000000 1.192729
v 11.074313 0.060000 1.192729
v 13.074313 -0.000000 10.192729
v 13.074313 0.060000 10.192729
v 13.074313 -0.000000 1.192729
v 13.074313 0.060000 1.192729
v -10.077244 -0.000000 10.193775
v -10.077244 0.060000 10.193775
v -10.077244 -0.000000 8.693775
v -10.077244 0.060000 8.693775
v 11.922756 -0.000000 10.193775
v 11.922756 0.060000 10.193775
v 11.922756 -0.000000 8.693775
v 11.922756 0.060000 8.693775
v 11.034842 0.000000 6.141627
v 11.034842 0.060000 6.141627
v 11.034842 0.000000 4.641627
v 11.034842 0.060000 4.641627
v 15.034842 0.000000 6.141627
v 15.034842 0.060000 6.141627
v 15.034842 0.000000 4.641627
v 15.034842 0.060000 4.641627
vn -1.0000 0.0000 0.0000
vn 0.0000 0.0000 -1.0000
vn 1.0000 0.0000 0.0000
vn 0.0000 0.0000 1.0000
vn 0.0000 -1.0000 0.0000
vn 0.0000 1.0000 0.0000
usemtl Material.030
s off
f 2//1 4//1 3//1 1//1
f 4//2 8//2 7//2 3//2
f 8//3 6//3 5//3 7//3
f 6//4 2//4 1//4 5//4
f 1//5 3//5 7//5 5//5
f 6//6 8//6 4//6 2//6
f 10//1 12//1 11//1 9//1
f 12//2 16//2 15//2 11//2
f 16//3 14//3 13//3 15//3
f 14//4 10//4 9//4 13//4
f 9//5 11//5 15//5 13//5
f 14//6 16//6 12//6 10//6
f 18//1 20//1 19//1 17//1
f 20//2 24//2 23//2 19//2
f 24//3 22//3 21//3 23//3
f 22//4 18//4 17//4 21//4
f 17//5 19//5 23//5 21//5
f 22//6 24//6 20//6 18//6
f 26//1 28//1 27//1 25//1
f 28//2 32//2 31//2 27//2
f 32//3 30//3 29//3 31//3
f 30//4 26//4 25//4 29//4
f 25//5 27//5 31//5 29//5
f 30//6 32//6 28//6 26//6
f 34//1 36//1 35//1 33//1
f 36//2 40//2 39//2 35//2
f 40//3 38//3 37//3 39//3
f 38//4 34//4 33//4 37//4
f 33//5 35//5 39//5 37//5
f 38//6 40//6 36//6 34//6
