# Blender v2.79 (sub 0) OBJ File: ''
# www.blender.org
mtllib carpa.mtl
o carpa_Cube.027
v 5.913679 0.000000 12.673268
v 5.913679 0.400000 12.673268
v 5.913679 0.000000 11.273269
v 5.913679 0.400000 11.273269
v 7.313679 0.000000 12.673268
v 7.313679 0.400000 12.673268
v 7.313679 0.000000 11.273269
v 7.313679 0.400000 11.273269
v 5.908339 -0.000000 13.026633
v 5.908339 0.800000 13.026633
v 5.908339 -0.000000 11.626633
v 5.908339 0.800000 11.626633
v 7.308339 -0.000000 13.026633
v 7.308339 0.800000 13.026633
v 7.308339 -0.000000 11.626634
v 7.308339 0.800000 11.626634
v 5.706943 0.000000 11.794193
v 5.706943 2.000000 11.794193
v 5.736207 0.000000 11.797075
v 5.736207 2.000000 11.797075
v 5.764346 0.000000 11.805612
v 5.764346 2.000000 11.805612
v 5.790279 0.000000 11.819472
v 5.790279 2.000000 11.819472
v 5.813009 0.000000 11.838127
v 5.813009 2.000000 11.838127
v 5.831664 0.000000 11.860858
v 5.831664 2.000000 11.860858
v 5.845525 0.000000 11.886790
v 5.845525 2.000000 11.886790
v 5.854061 0.000000 11.914929
v 5.854061 2.000000 11.914929
v 5.856943 0.000000 11.944193
v 5.856943 2.000000 11.944193
v 5.854061 0.000000 11.973456
v 5.854061 2.000000 11.973456
v 5.845525 0.000000 12.001595
v 5.845525 2.000000 12.001595
v 5.831664 0.000000 12.027529
v 5.831664 2.000000 12.027529
v 5.813009 0.000000 12.050259
v 5.813009 2.000000 12.050259
v 5.790279 0.000000 12.068913
v 5.790279 2.000000 12.068913
v 5.764346 0.000000 12.082775
v 5.764346 2.000000 12.082775
v 5.736207 0.000000 12.091311
v 5.736207 2.000000 12.091311
v 5.706943 0.000000 12.094193
v 5.706943 2.000000 12.094193
v 5.677680 0.000000 12.091311
v 5.677680 2.000000 12.091311
v 5.649541 0.000000 12.082775
v 5.649541 2.000000 12.082775
v 5.623608 0.000000 12.068913
v 5.623608 2.000000 12.068913
v 5.600877 0.000000 12.050259
v 5.600877 2.000000 12.050259
v 5.582223 0.000000 12.027529
v 5.582223 2.000000 12.027529
v 5.568361 0.000000 12.001595
v 5.568361 2.000000 12.001595
v 5.559825 0.000000 11.973456
v 5.559825 2.000000 11.973456
v 5.556943 0.000000 11.944193
v 5.556943 2.000000 11.944193
v 5.559825 0.000000 11.914929
v 5.559825 2.000000 11.914929
v 5.568361 0.000000 11.886790
v 5.568361 2.000000 11.886790
v 5.582223 0.000000 11.860857
v 5.582223 2.000000 11.860857
v 5.600877 0.000000 11.838127
v 5.600877 2.000000 11.838127
v 5.623608 0.000000 11.819472
v 5.623608 2.000000 11.819472
v 5.649541 0.000000 11.805611
v 5.649541 2.000000 11.805611
v 5.677680 0.000000 11.797075
v 5.677680 2.000000 11.797075
v 7.506579 0.000000 11.794189
v 7.506579 2.000000 11.794189
v 7.535843 0.000000 11.797071
v 7.535843 2.000000 11.797071
v 7.563982 0.000000 11.805607
v 7.563982 2.000000 11.805607
v 7.589915 0.000000 11.819468
v 7.589915 2.000000 11.819468
v 7.612645 0.000000 11.838123
v 7.612645 2.000000 11.838123
v 7.631299 0.000000 11.860853
v 7.631299 2.000000 11.860853
v 7.645161 0.000000 11.886786
v 7.645161 2.000000 11.886786
v 7.653697 0.000000 11.914926
v 7.653697 2.000000 11.914926
v 7.656579 0.000000 11.944189
v 7.656579 2.000000 11.944189
v 7.653697 0.000000 11.973453
v 7.653697 2.000000 11.973453
v 7.645161 0.000000 12.001592
v 7.645161 2.000000 12.001592
v 7.631299 0.000000 12.027525
v 7.631299 2.000000 12.027525
v 7.612645 0.000000 12.050255
v 7.612645 2.000000 12.050255
v 7.589915 0.000000 12.068910
v 7.589915 2.000000 12.068910
v 7.563982 0.000000 12.082771
v 7.563982 2.000000 12.082771
v 7.535843 0.000000 12.091307
v 7.535843 2.000000 12.091307
v 7.506579 0.000000 12.094189
v 7.506579 2.000000 12.094189
v 7.477315 0.000000 12.091307
v 7.477315 2.000000 12.091307
v 7.449177 0.000000 12.082771
v 7.449177 2.000000 12.082771
v 7.423244 0.000000 12.068910
v 7.423244 2.000000 12.068910
v 7.400513 0.000000 12.050255
v 7.400513 2.000000 12.050255
v 7.381859 0.000000 12.027525
v 7.381859 2.000000 12.027525
v 7.367997 0.000000 12.001592
v 7.367997 2.000000 12.001592
v 7.359461 0.000000 11.973453
v 7.359461 2.000000 11.973453
v 7.356579 0.000000 11.944189
v 7.356579 2.000000 11.944189
v 7.359461 0.000000 11.914926
v 7.359461 2.000000 11.914926
v 7.367997 0.000000 11.886786
v 7.367997 2.000000 11.886786
v 7.381859 0.000000 11.860853
v 7.381859 2.000000 11.860853
v 7.400513 0.000000 11.838123
v 7.400513 2.000000 11.838123
v 7.423244 0.000000 11.819468
v 7.423244 2.000000 11.819468
v 7.449177 0.000000 11.805607
v 7.449177 2.000000 11.805607
v 7.477316 0.000000 11.797071
v 7.477316 2.000000 11.797071
v 5.592550 1.985232 12.743515
v 5.592550 2.005232 12.743515
v 5.592550 1.985232 10.743515
v 5.592550 2.005232 10.743515
v 7.592550 1.985232 12.743516
v 7.592550 2.005232 12.743516
v 7.592550 1.985232 10.743516
v 7.592550 2.005232 10.743516
v 6.598701 1.962465 11.970567
v 6.793791 1.962465 11.989781
v 6.981384 1.962465 12.046687
v 7.154271 1.962465 12.139097
v 7.305808 1.962465 12.263460
v 7.430171 1.962465 12.414997
v 7.522580 1.962465 12.587884
v 7.579486 1.962465 12.775476
v 7.598701 1.962465 12.970567
v 6.598701 3.962465 12.970567
v 7.579486 1.962465 13.165657
v 7.522580 1.962465 13.353251
v 7.430171 1.962465 13.526137
v 7.305808 1.962465 13.677674
v 7.154271 1.962465 13.802037
v 6.981384 1.962465 13.894447
v 6.793791 1.962465 13.951352
v 6.598701 1.962465 13.970568
v 6.403610 1.962465 13.951352
v 6.216017 1.962465 13.894446
v 6.043130 1.962465 13.802036
v 5.891593 1.962465 13.677673
v 5.767231 1.962465 13.526136
v 5.674820 1.962465 13.353250
v 5.617915 1.962465 13.165656
v 5.598701 1.962465 12.970566
v 5.617915 1.962465 12.775476
v 5.674821 1.962465 12.587882
v 5.767231 1.962465 12.414995
v 5.891594 1.962465 12.263459
v 6.043131 1.962465 12.139096
v 6.216019 1.962465 12.046687
v 6.403612 1.962465 11.989781
v 5.744432 0.000000 10.752669
v 5.744432 2.000000 10.752669
v 5.754187 0.000000 10.753630
v 5.754187 2.000000 10.753630
v 5.763566 0.000000 10.756475
v 5.763566 2.000000 10.756475
v 5.772211 0.000000 10.761095
v 5.772211 2.000000 10.761095
v 5.779788 0.000000 10.767314
v 5.779788 2.000000 10.767314
v 5.786005 0.000000 10.774891
v 5.786005 2.000000 10.774891
v 5.790626 0.000000 10.783535
v 5.790626 2.000000 10.783535
v 5.793471 0.000000 10.792914
v 5.793471 2.000000 10.792914
v 5.794432 0.000000 10.802669
v 5.794432 2.000000 10.802669
v 5.793471 0.000000 10.812424
v 5.793471 2.000000 10.812424
v 5.790626 0.000000 10.821803
v 5.790626 2.000000 10.821803
v 5.786005 0.000000 10.830447
v 5.786005 2.000000 10.830447
v 5.779788 0.000000 10.838024
v 5.779788 2.000000 10.838024
v 5.772211 0.000000 10.844242
v 5.772211 2.000000 10.844242
v 5.763566 0.000000 10.848863
v 5.763566 2.000000 10.848863
v 5.754187 0.000000 10.851708
v 5.754187 2.000000 10.851708
v 5.744432 0.000000 10.852669
v 5.744432 2.000000 10.852669
v 5.734677 0.000000 10.851708
v 5.734677 2.000000 10.851708
v 5.725298 0.000000 10.848863
v 5.725298 2.000000 10.848863
v 5.716654 0.000000 10.844242
v 5.716654 2.000000 10.844242
v 5.709077 0.000000 10.838024
v 5.709077 2.000000 10.838024
v 5.702858 0.000000 10.830447
v 5.702858 2.000000 10.830447
v 5.698238 0.000000 10.821803
v 5.698238 2.000000 10.821803
v 5.695393 0.000000 10.812424
v 5.695393 2.000000 10.812424
v 5.694432 0.000000 10.802669
v 5.694432 2.000000 10.802669
v 5.695393 0.000000 10.792914
v 5.695393 2.000000 10.792914
v 5.698238 0.000000 10.783535
v 5.698238 2.000000 10.783535
v 5.702858 0.000000 10.774891
v 5.702858 2.000000 10.774891
v 5.709077 0.000000 10.767314
v 5.709077 2.000000 10.767314
v 5.716654 0.000000 10.761095
v 5.716654 2.000000 10.761095
v 5.725298 0.000000 10.756475
v 5.725298 2.000000 10.756475
v 5.734678 0.000000 10.753630
v 5.734678 2.000000 10.753630
v 7.518311 0.000000 10.752672
v 7.518311 2.000000 10.752672
v 7.528065 0.000000 10.753633
v 7.528065 2.000000 10.753633
v 7.537445 0.000000 10.756478
v 7.537445 2.000000 10.756478
v 7.546089 0.000000 10.761099
v 7.546089 2.000000 10.761099
v 7.553666 0.000000 10.767317
v 7.553666 2.000000 10.767317
v 7.559884 0.000000 10.774894
v 7.559884 2.000000 10.774894
v 7.564505 0.000000 10.783538
v 7.564505 2.000000 10.783538
v 7.567349 0.000000 10.792918
v 7.567349 2.000000 10.792918
v 7.568310 0.000000 10.802672
v 7.568310 2.000000 10.802672
v 7.567349 0.000000 10.812427
v 7.567349 2.000000 10.812427
v 7.564505 0.000000 10.821807
v 7.564505 2.000000 10.821807
v 7.559884 0.000000 10.830451
v 7.559884 2.000000 10.830451
v 7.553666 0.000000 10.838028
v 7.553666 2.000000 10.838028
v 7.546089 0.000000 10.844246
v 7.546089 2.000000 10.844246
v 7.537445 0.000000 10.848866
v 7.537445 2.000000 10.848866
v 7.528065 0.000000 10.851711
v 7.528065 2.000000 10.851711
v 7.518311 0.000000 10.852673
v 7.518311 2.000000 10.852673
v 7.508556 0.000000 10.851711
v 7.508556 2.000000 10.851711
v 7.499176 0.000000 10.848866
v 7.499176 2.000000 10.848866
v 7.490532 0.000000 10.844246
v 7.490532 2.000000 10.844246
v 7.482955 0.000000 10.838028
v 7.482955 2.000000 10.838028
v 7.476737 0.000000 10.830451
v 7.476737 2.000000 10.830451
v 7.472116 0.000000 10.821806
v 7.472116 2.000000 10.821806
v 7.469271 0.000000 10.812427
v 7.469271 2.000000 10.812427
v 7.468310 0.000000 10.802672
v 7.468310 2.000000 10.802672
v 7.469271 0.000000 10.792917
v 7.469271 2.000000 10.792917
v 7.472116 0.000000 10.783538
v 7.472116 2.000000 10.783538
v 7.476737 0.000000 10.774894
v 7.476737 2.000000 10.774894
v 7.482955 0.000000 10.767317
v 7.482955 2.000000 10.767317
v 7.490532 0.000000 10.761099
v 7.490532 2.000000 10.761099
v 7.499177 0.000000 10.756478
v 7.499177 2.000000 10.756478
v 7.508556 0.000000 10.753633
v 7.508556 2.000000 10.753633
v 5.597034 0.000000 13.976753
v 5.597034 2.000000 13.976753
v 5.597034 0.000000 11.976753
v 5.597034 2.000000 11.976753
v 7.597034 0.000000 13.976753
v 7.597034 2.000000 13.976753
v 7.597034 0.000000 11.976753
v 7.597034 2.000000 11.976753
vn -1.0000 0.0000 0.0000
vn 0.0000 0.0000 -1.0000
vn 1.0000 0.0000 0.0000
vn 0.0000 0.0000 1.0000
vn 0.0000 -1.0000 0.0000
vn 0.0000 1.0000 0.0000
vn 0.0980 0.0000 -0.9952
vn 0.2903 0.0000 -0.9569
vn 0.4714 0.0000 -0.8819
vn 0.6344 0.0000 -0.7730
vn 0.7730 0.0000 -0.6344
vn 0.8819 0.0000 -0.4714
vn 0.9569 0.0000 -0.2903
vn 0.9952 0.0000 -0.0980
vn 0.9952 0.0000 0.0980
vn 0.9569 0.0000 0.2903
vn 0.8819 0.0000 0.4714
vn 0.7730 0.0000 0.6344
vn 0.6344 0.0000 0.7730
vn 0.4714 0.0000 0.8819
vn 0.2903 0.0000 0.9569
vn 0.0980 0.0000 0.9952
vn -0.0980 0.0000 0.9952
vn -0.2903 0.0000 0.9569
vn -0.4714 0.0000 0.8819
vn -0.6344 0.0000 0.7730
vn -0.7730 0.0000 0.6344
vn -0.8819 0.0000 0.4714
vn -0.9569 0.0000 0.2903
vn -0.9952 0.0000 0.0980
vn -0.9952 0.0000 -0.0980
vn -0.9569 0.0000 -0.2903
vn -0.8819 0.0000 -0.4714
vn -0.7730 0.0000 -0.6344
vn -0.6344 0.0000 -0.7730
vn -0.4714 0.0000 -0.8819
vn -0.0980 0.0000 -0.9952
vn -0.2903 0.0000 -0.9569
vn -0.2599 0.4455 -0.8567
vn 0.0878 0.4455 -0.8910
vn -0.4220 0.4455 -0.7896
vn -0.5680 0.4455 -0.6921
vn -0.6921 0.4455 -0.5680
vn -0.7896 0.4455 -0.4220
vn -0.8567 0.4455 -0.2599
vn -0.8910 0.4455 -0.0878
vn -0.8910 0.4455 0.0878
vn -0.8567 0.4455 0.2599
vn -0.7896 0.4455 0.4220
vn -0.6921 0.4455 0.5680
vn -0.5680 0.4455 0.6921
vn -0.4220 0.4455 0.7896
vn -0.2599 0.4455 0.8567
vn -0.0878 0.4455 0.8910
vn 0.0878 0.4455 0.8910
vn 0.2599 0.4455 0.8567
vn 0.4220 0.4455 0.7896
vn 0.5680 0.4455 0.6921
vn 0.6921 0.4455 0.5680
vn 0.7896 0.4455 0.4220
vn 0.8567 0.4455 0.2599
vn 0.8910 0.4455 0.0878
vn 0.8910 0.4455 -0.0878
vn 0.8567 0.4455 -0.2599
vn 0.7896 0.4455 -0.4220
vn 0.6921 0.4455 -0.5680
vn 0.5680 0.4455 -0.6921
vn 0.4220 0.4455 -0.7896
vn -0.0878 0.4455 -0.8910
vn 0.2599 0.4455 -0.8567
vn 0.4713 0.0000 -0.8820
vn -0.4713 0.0000 -0.8820
vn 0.0981 0.0000 -0.9952
vn 0.2902 0.0000 -0.9570
vn 0.9570 0.0000 -0.2902
vn 0.9570 0.0000 0.2902
vn 0.2902 0.0000 0.9570
vn 0.0981 0.0000 0.9952
vn -0.0981 0.0000 0.9952
vn -0.2902 0.0000 0.9570
vn -0.0981 0.0000 -0.9952
vn -0.2902 0.0000 -0.9570
usemtl Material.031
s off
f 2//1 4//1 3//1 1//1
f 4//2 8//2 7//2 3//2
f 8//3 6//3 5//3 7//3
f 6//4 2//4 1//4 5//4
f 1//5 3//5 7//5 5//5
f 6//6 8//6 4//6 2//6
f 10//1 12//1 11//1 9//1
f 12//2 16//2 15//2 11//2
f 16//3 14//3 13//3 15//3
f 14//4 10//4 9//4 13//4
f 9//5 11//5 15//5 13//5
f 14//6 16//6 12//6 10//6
f 17//7 18//7 20//7 19//7
f 19//8 20//8 22//8 21//8
f 21//9 22//9 24//9 23//9
f 23//10 24//10 26//10 25//10
f 25//11 26//11 28//11 27//11
f 27//12 28//12 30//12 29//12
f 29//13 30//13 32//13 31//13
f 31//14 32//14 34//14 33//14
f 33//15 34//15 36//15 35//15
f 35//16 36//16 38//16 37//16
f 37//17 38//17 40//17 39//17
f 39//18 40//18 42//18 41//18
f 41//19 42//19 44//19 43//19
f 43//20 44//20 46//20 45//20
f 45//21 46//21 48//21 47//21
f 47//22 48//22 50//22 49//22
f 49//23 50//23 52//23 51//23
f 51//24 52//24 54//24 53//24
f 53//25 54//25 56//25 55//25
f 55//26 56//26 58//26 57//26
f 57//27 58//27 60//27 59//27
f 59//28 60//28 62//28 61//28
f 61//29 62//29 64//29 63//29
f 63//30 64//30 66//30 65//30
f 65//31 66//31 68//31 67//31
f 67//32 68//32 70//32 69//32
f 69//33 70//33 72//33 71//33
f 71//34 72//34 74//34 73//34
f 73//35 74//35 76//35 75//35
f 75//36 76//36 78//36 77//36
f 20//6 18//6 80//6 78//6 76//6 74//6 72//6 70//6 68//6 66//6 64//6 62//6 60//6 58//6 56//6 54//6 52//6 50//6 48//6 46//6 44//6 42//6 40//6 38//6 36//6 34//6 32//6 30//6 28//6 26//6 24//6 22//6
f 79//37 80//37 18//37 17//37
f 77//38 78//38 80//38 79//38
f 17//5 19//5 21//5 23//5 25//5 27//5 29//5 31//5 33//5 35//5 37//5 39//5 41//5 43//5 45//5 47//5 49//5 51//5 53//5 55//5 57//5 59//5 61//5 63//5 65//5 67//5 69//5 71//5 73//5 75//5 77//5 79//5
f 81//7 82//7 84//7 83//7
f 83//8 84//8 86//8 85//8
f 85//9 86//9 88//9 87//9
f 87//10 88//10 90//10 89//10
f 89//11 90//11 92//11 91//11
f 91//12 92//12 94//12 93//12
f 93//13 94//13 96//13 95//13
f 95//14 96//14 98//14 97//14
f 97//15 98//15 100//15 99//15
f 99//16 100//16 102//16 101//16
f 101//17 102//17 104//17 103//17
f 103//18 104//18 106//18 105//18
f 105//19 106//19 108//19 107//19
f 107//20 108//20 110//20 109//20
f 109//21 110//21 112//21 111//21
f 111//22 112//22 114//22 113//22
f 113//23 114//23 116//23 115//23
f 115//24 116//24 118//24 117//24
f 117//25 118//25 120//25 119//25
f 119//26 120//26 122//26 121//26
f 121//27 122//27 124//27 123//27
f 123//28 124//28 126//28 125//28
f 125//29 126//29 128//29 127//29
f 127//30 128//30 130//30 129//30
f 129//31 130//31 132//31 131//31
f 131//32 132//32 134//32 133//32
f 133//33 134//33 136//33 135//33
f 135//34 136//34 138//34 137//34
f 137//35 138//35 140//35 139//35
f 139//36 140//36 142//36 141//36
f 84//6 82//6 144//6 142//6 140//6 138//6 136//6 134//6 132//6 130//6 128//6 126//6 124//6 122//6 120//6 118//6 116//6 114//6 112//6 110//6 108//6 106//6 104//6 102//6 100//6 98//6 96//6 94//6 92//6 90//6 88//6 86//6
f 143//37 144//37 82//37 81//37
f 141//38 142//38 144//38 143//38
f 81//5 83//5 85//5 87//5 89//5 91//5 93//5 95//5 97//5 99//5 101//5 103//5 105//5 107//5 109//5 111//5 113//5 115//5 117//5 119//5 121//5 123//5 125//5 127//5 129//5 131//5 133//5 135//5 137//5 139//5 141//5 143//5
f 146//1 148//1 147//1 145//1
f 148//2 152//2 151//2 147//2
f 152//3 150//3 149//3 151//3
f 150//4 146//4 145//4 149//4
f 145//5 147//5 151//5 149//5
f 150//6 152//6 148//6 146//6
f 184//39 162//39 185//39
f 153//40 162//40 154//40
f 183//41 162//41 184//41
f 182//42 162//42 183//42
f 181//43 162//43 182//43
f 180//44 162//44 181//44
f 179//45 162//45 180//45
f 178//46 162//46 179//46
f 177//47 162//47 178//47
f 176//48 162//48 177//48
f 175//49 162//49 176//49
f 174//50 162//50 175//50
f 173//51 162//51 174//51
f 172//52 162//52 173//52
f 171//53 162//53 172//53
f 170//54 162//54 171//54
f 169//55 162//55 170//55
f 168//56 162//56 169//56
f 167//57 162//57 168//57
f 166//58 162//58 167//58
f 165//59 162//59 166//59
f 164//60 162//60 165//60
f 163//61 162//61 164//61
f 161//62 162//62 163//62
f 160//63 162//63 161//63
f 159//64 162//64 160//64
f 158//65 162//65 159//65
f 157//66 162//66 158//66
f 156//67 162//67 157//67
f 155//68 162//68 156//68
f 185//69 162//69 153//69
f 154//70 162//70 155//70
f 153//5 154//5 155//5 156//5 157//5 158//5 159//5 160//5 161//5 163//5 164//5 165//5 166//5 167//5 168//5 169//5 170//5 171//5 172//5 173//5 174//5 175//5 176//5 177//5 178//5 179//5 180//5 181//5 182//5 183//5 184//5 185//5
f 186//7 187//7 189//7 188//7
f 188//8 189//8 191//8 190//8
f 190//71 191//71 193//71 192//71
f 192//10 193//10 195//10 194//10
f 194//11 195//11 197//11 196//11
f 196//12 197//12 199//12 198//12
f 198//13 199//13 201//13 200//13
f 200//14 201//14 203//14 202//14
f 202//15 203//15 205//15 204//15
f 204//16 205//16 207//16 206//16
f 206//17 207//17 209//17 208//17
f 208//18 209//18 211//18 210//18
f 210//19 211//19 213//19 212//19
f 212//20 213//20 215//20 214//20
f 214//21 215//21 217//21 216//21
f 216//22 217//22 219//22 218//22
f 218//23 219//23 221//23 220//23
f 220//24 221//24 223//24 222//24
f 222//25 223//25 225//25 224//25
f 224//26 225//26 227//26 226//26
f 226//27 227//27 229//27 228//27
f 228//28 229//28 231//28 230//28
f 230//29 231//29 233//29 232//29
f 232//30 233//30 235//30 234//30
f 234//31 235//31 237//31 236//31
f 236//32 237//32 239//32 238//32
f 238//33 239//33 241//33 240//33
f 240//34 241//34 243//34 242//34
f 242//35 243//35 245//35 244//35
f 244//72 245//72 247//72 246//72
f 189//6 187//6 249//6 247//6 245//6 243//6 241//6 239//6 237//6 235//6 233//6 231//6 229//6 227//6 225//6 223//6 221//6 219//6 217//6 215//6 213//6 211//6 209//6 207//6 205//6 203//6 201//6 199//6 197//6 195//6 193//6 191//6
f 248//37 249//37 187//37 186//37
f 246//38 247//38 249//38 248//38
f 186//5 188//5 190//5 192//5 194//5 196//5 198//5 200//5 202//5 204//5 206//5 208//5 210//5 212//5 214//5 216//5 218//5 220//5 222//5 224//5 226//5 228//5 230//5 232//5 234//5 236//5 238//5 240//5 242//5 244//5 246//5 248//5
f 250//73 251//73 253//73 252//73
f 252//74 253//74 255//74 254//74
f 254//9 255//9 257//9 256//9
f 256//10 257//10 259//10 258//10
f 258//11 259//11 261//11 260//11
f 260//12 261//12 263//12 262//12
f 262//75 263//75 265//75 264//75
f 264//14 265//14 267//14 266//14
f 266//15 267//15 269//15 268//15
f 268//76 269//76 271//76 270//76
f 270//17 271//17 273//17 272//17
f 272//18 273//18 275//18 274//18
f 274//19 275//19 277//19 276//19
f 276//20 277//20 279//20 278//20
f 278//77 279//77 281//77 280//77
f 280//78 281//78 283//78 282//78
f 282//79 283//79 285//79 284//79
f 284//80 285//80 287//80 286//80
f 286//25 287//25 289//25 288//25
f 288//26 289//26 291//26 290//26
f 290//27 291//27 293//27 292//27
f 292//28 293//28 295//28 294//28
f 294//29 295//29 297//29 296//29
f 296//30 297//30 299//30 298//30
f 298//31 299//31 301//31 300//31
f 300//32 301//32 303//32 302//32
f 302//33 303//33 305//33 304//33
f 304//34 305//34 307//34 306//34
f 306//35 307//35 309//35 308//35
f 308//36 309//36 311//36 310//36
f 253//6 251//6 313//6 311//6 309//6 307//6 305//6 303//6 301//6 299//6 297//6 295//6 293//6 291//6 289//6 287//6 285//6 283//6 281//6 279//6 277//6 275//6 273//6 271//6 269//6 267//6 265//6 263//6 261//6 259//6 257//6 255//6
f 312//81 313//81 251//81 250//81
f 310//82 311//82 313//82 312//82
f 250//5 252//5 254//5 256//5 258//5 260//5 262//5 264//5 266//5 268//5 270//5 272//5 274//5 276//5 278//5 280//5 282//5 284//5 286//5 288//5 290//5 292//5 294//5 296//5 298//5 300//5 302//5 304//5 306//5 308//5 310//5 312//5
f 315//1 317//1 316//1 314//1
f 317//2 321//2 320//2 316//2
f 321//3 319//3 318//3 320//3
f 319//4 315//4 314//4 318//4
f 314//5 316//5 320//5 318//5
f 319//6 321//6 317//6 315//6
