# Blender v2.79 (sub 0) OBJ File: ''
# www.blender.org
mtllib columna.mtl
o columna_Cube.026
v -2.458979 0.394107 2.434838
v -2.458979 2.394107 2.434838
v -2.458979 0.394107 1.456881
v -2.458979 2.394107 1.456881
v -1.481022 0.394107 2.434838
v -1.481022 2.394107 2.434838
v -1.481022 0.394107 1.456881
v -1.481022 2.394107 1.456881
vn -1.0000 0.0000 0.0000
vn 0.0000 0.0000 -1.0000
vn 1.0000 0.0000 0.0000
vn 0.0000 0.0000 1.0000
vn 0.0000 -1.0000 0.0000
vn 0.0000 1.0000 0.0000
usemtl Material.055
s off
f 2//1 4//1 3//1 1//1
f 4//2 8//2 7//2 3//2
f 8//3 6//3 5//3 7//3
f 6//4 2//4 1//4 5//4
f 1//5 3//5 7//5 5//5
f 6//6 8//6 4//6 2//6
