# Blender v2.79 (sub 0) OBJ File: ''
# www.blender.org
mtllib cono.mtl
o cono1_Cone
v -0.368066 1.700000 -1.033682
v -0.338803 1.700000 -1.030800
v -0.310664 1.700000 -1.022264
v -0.284731 1.700000 -1.008403
v -0.262000 1.700000 -0.989748
v -0.243346 1.700000 -0.967018
v -0.229484 1.700000 -0.941085
v -0.220948 1.700000 -0.912946
v -0.218066 1.700000 -0.883682
v -0.368066 2.000000 -0.883682
v -0.220948 1.700000 -0.854419
v -0.229484 1.700000 -0.826280
v -0.243346 1.700000 -0.800347
v -0.262000 1.700000 -0.777617
v -0.284731 1.700000 -0.758962
v -0.310664 1.700000 -0.745101
v -0.338803 1.700000 -0.736565
v -0.368066 1.700000 -0.733683
v -0.397330 1.700000 -0.736565
v -0.425469 1.700000 -0.745101
v -0.451402 1.700000 -0.758962
v -0.474132 1.700000 -0.777617
v -0.492787 1.700000 -0.800347
v -0.506648 1.700000 -0.826280
v -0.515184 1.700000 -0.854419
v -0.518066 1.700000 -0.883683
v -0.515184 1.700000 -0.912946
v -0.506648 1.700000 -0.941085
v -0.492786 1.700000 -0.967018
v -0.474132 1.700000 -0.989749
v -0.451402 1.700000 -1.008403
v -0.425468 1.700000 -1.022264
v -0.397329 1.700000 -1.030800
vn -0.2599 0.4455 -0.8567
vn 0.0877 0.4455 -0.8910
vn -0.4220 0.4455 -0.7896
vn -0.5680 0.4455 -0.6921
vn -0.6921 0.4455 -0.5680
vn -0.7896 0.4455 -0.4220
vn -0.8567 0.4455 -0.2599
vn -0.8910 0.4455 -0.0878
vn -0.8910 0.4455 0.0878
vn -0.8567 0.4455 0.2599
vn -0.7896 0.4455 0.4220
vn -0.6921 0.4455 0.5680
vn -0.5680 0.4455 0.6921
vn -0.4220 0.4455 0.7896
vn -0.2599 0.4455 0.8567
vn -0.0877 0.4455 0.8910
vn 0.0877 0.4455 0.8910
vn 0.2599 0.4455 0.8567
vn 0.4220 0.4455 0.7896
vn 0.5680 0.4455 0.6921
vn 0.6921 0.4455 0.5680
vn 0.7896 0.4455 0.4220
vn 0.8567 0.4455 0.2599
vn 0.8910 0.4455 0.0877
vn 0.8910 0.4455 -0.0877
vn 0.8567 0.4455 -0.2599
vn 0.7896 0.4455 -0.4220
vn 0.6921 0.4455 -0.5680
vn 0.5680 0.4455 -0.6921
vn 0.4220 0.4455 -0.7896
vn -0.0878 0.4455 -0.8910
vn 0.2599 0.4455 -0.8567
vn 0.0000 -1.0000 0.0000
usemtl Material.092
s off
f 32//1 10//1 33//1
f 1//2 10//2 2//2
f 31//3 10//3 32//3
f 30//4 10//4 31//4
f 29//5 10//5 30//5
f 28//6 10//6 29//6
f 27//7 10//7 28//7
f 26//8 10//8 27//8
f 25//9 10//9 26//9
f 24//10 10//10 25//10
f 23//11 10//11 24//11
f 22//12 10//12 23//12
f 21//13 10//13 22//13
f 20//14 10//14 21//14
f 19//15 10//15 20//15
f 18//16 10//16 19//16
f 17//17 10//17 18//17
f 16//18 10//18 17//18
f 15//19 10//19 16//19
f 14//20 10//20 15//20
f 13//21 10//21 14//21
f 12//22 10//22 13//22
f 11//23 10//23 12//23
f 9//24 10//24 11//24
f 8//25 10//25 9//25
f 7//26 10//26 8//26
f 6//27 10//27 7//27
f 5//28 10//28 6//28
f 4//29 10//29 5//29
f 3//30 10//30 4//30
f 33//31 10//31 1//31
f 2//32 10//32 3//32
f 1//33 2//33 3//33 4//33 5//33 6//33 7//33 8//33 9//33 11//33 12//33 13//33 14//33 15//33 16//33 17//33 18//33 19//33 20//33 21//33 22//33 23//33 24//33 25//33 26//33 27//33 28//33 29//33 30//33 31//33 32//33 33//33
