# Blender v2.79 (sub 0) OBJ File: ''
# www.blender.org
mtllib cube.mtl
o Cube.056
v -1.764219 1.253285 -0.169229
v -1.764219 1.433285 -0.169229
v -1.764219 1.253285 -0.209229
v -1.764219 1.433285 -0.209229
v -1.564219 1.253285 -0.169229
v -1.564219 1.433285 -0.169229
v -1.564219 1.253285 -0.209229
v -1.564219 1.433285 -0.209229
vn -1.0000 0.0000 0.0000
vn 0.0000 0.0000 -1.0000
vn 1.0000 0.0000 0.0000
vn 0.0000 0.0000 1.0000
vn 0.0000 -1.0000 0.0000
vn 0.0000 1.0000 0.0000
usemtl Material.063
s off
f 2//1 4//1 3//1 1//1
f 4//2 8//2 7//2 3//2
f 8//3 6//3 5//3 7//3
f 6//4 2//4 1//4 5//4
f 1//5 3//5 7//5 5//5
f 6//6 8//6 4//6 2//6
