# Blender v2.79 (sub 0) OBJ File: ''
# www.blender.org
mtllib cubito.mtl
o cubito_Cube.074
v 1.458253 0.396071 5.561667
v 1.458253 0.396071 5.553173
v 1.373305 0.396071 5.561667
v 1.373305 0.396071 5.553173
v 1.458253 0.311124 5.561667
v 1.458253 0.311124 5.553173
v 1.373305 0.311124 5.561667
v 1.373305 0.311124 5.553173
v 1.458135 0.396071 5.484856
v 1.458135 0.396071 5.476361
v 1.373188 0.396071 5.484856
v 1.373188 0.396071 5.476361
v 1.458135 0.311124 5.484856
v 1.458135 0.311124 5.476362
v 1.373188 0.311124 5.484856
v 1.373188 0.311124 5.476362
v 1.449890 0.396512 5.561483
v 1.458385 0.396512 5.561483
v 1.449890 0.396512 5.476536
v 1.458385 0.396512 5.476536
v 1.449890 0.311564 5.561484
v 1.458385 0.311564 5.561484
v 1.449890 0.311564 5.476537
v 1.458385 0.311564 5.476537
v 1.372855 0.396071 5.561483
v 1.381349 0.396071 5.561483
v 1.372855 0.396071 5.476536
v 1.381349 0.396071 5.476536
v 1.372855 0.311124 5.561484
v 1.381349 0.311124 5.561484
v 1.372855 0.311124 5.476537
v 1.381349 0.311124 5.476537
v 1.373465 0.311124 5.561484
v 1.373465 0.319619 5.561484
v 1.373465 0.311124 5.476536
v 1.373465 0.319619 5.476536
v 1.458412 0.311124 5.561484
v 1.458412 0.319619 5.561484
v 1.458412 0.311124 5.476536
v 1.458412 0.319619 5.476536
vn 0.0000 1.0000 0.0000
vn -1.0000 0.0000 0.0000
vn 0.0000 -1.0000 0.0000
vn 1.0000 0.0000 0.0000
vn 0.0000 0.0000 1.0000
vn 0.0000 0.0000 -1.0000
usemtl Material.129
s off
f 2//1 4//1 3//1 1//1
f 4//2 8//2 7//2 3//2
f 8//3 6//3 5//3 7//3
f 6//4 2//4 1//4 5//4
f 1//5 3//5 7//5 5//5
f 6//6 8//6 4//6 2//6
f 10//1 12//1 11//1 9//1
f 12//2 16//2 15//2 11//2
f 16//3 14//3 13//3 15//3
f 14//4 10//4 9//4 13//4
f 9//5 11//5 15//5 13//5
f 14//6 16//6 12//6 10//6
f 18//1 20//1 19//1 17//1
f 20//6 24//6 23//6 19//6
f 24//3 22//3 21//3 23//3
f 22//5 18//5 17//5 21//5
f 17//2 19//2 23//2 21//2
f 22//4 24//4 20//4 18//4
f 26//1 28//1 27//1 25//1
f 28//6 32//6 31//6 27//6
f 32//3 30//3 29//3 31//3
f 30//5 26//5 25//5 29//5
f 25//2 27//2 31//2 29//2
f 30//4 32//4 28//4 26//4
f 34//2 36//2 35//2 33//2
f 36//6 40//6 39//6 35//6
f 40//4 38//4 37//4 39//4
f 38//5 34//5 33//5 37//5
f 33//3 35//3 39//3 37//3
f 38//1 40//1 36//1 34//1
