# Blender v2.79 (sub 0) OBJ File: ''
# www.blender.org
mtllib diabolo.mtl
o diabolo_Cone.003
v 1.445794 0.451233 5.907590
v 1.461465 0.449689 5.907590
v 1.476534 0.445118 5.907590
v 1.490422 0.437695 5.907590
v 1.502594 0.427705 5.907590
v 1.512584 0.415533 5.907590
v 1.520007 0.401646 5.907590
v 1.524578 0.386577 5.907590
v 1.526121 0.370906 5.907590
v 1.445794 0.370906 6.068244
v 1.524578 0.355235 5.907590
v 1.520007 0.340166 5.907590
v 1.512584 0.326279 5.907590
v 1.502594 0.314106 5.907590
v 1.490422 0.304116 5.907590
v 1.476534 0.296694 5.907590
v 1.461465 0.292122 5.907590
v 1.445794 0.290579 5.907590
v 1.430123 0.292122 5.907590
v 1.415055 0.296694 5.907590
v 1.401167 0.304117 5.907590
v 1.388995 0.314106 5.907590
v 1.379005 0.326279 5.907590
v 1.371582 0.340166 5.907590
v 1.367011 0.355235 5.907590
v 1.365468 0.370906 5.907590
v 1.367011 0.386577 5.907590
v 1.371582 0.401646 5.907590
v 1.379005 0.415533 5.907590
v 1.388995 0.427706 5.907590
v 1.401167 0.437695 5.907590
v 1.415055 0.445118 5.907590
v 1.430123 0.449689 5.907590
v 1.445794 0.290579 6.139902
v 1.461465 0.292122 6.139902
v 1.476534 0.296694 6.139902
v 1.490422 0.304116 6.139902
v 1.502594 0.314106 6.139902
v 1.512584 0.326279 6.139902
v 1.520007 0.340166 6.139902
v 1.524578 0.355235 6.139902
v 1.526121 0.370906 6.139902
v 1.445794 0.370906 5.979248
v 1.524578 0.386577 6.139902
v 1.520007 0.401646 6.139902
v 1.512584 0.415533 6.139902
v 1.502594 0.427705 6.139902
v 1.490422 0.437695 6.139902
v 1.476534 0.445118 6.139902
v 1.461465 0.449689 6.139902
v 1.445794 0.451233 6.139902
v 1.430123 0.449689 6.139902
v 1.415055 0.445118 6.139902
v 1.401167 0.437695 6.139902
v 1.388995 0.427705 6.139902
v 1.379005 0.415533 6.139902
v 1.371582 0.401646 6.139902
v 1.367011 0.386577 6.139902
v 1.365468 0.370906 6.139902
v 1.367011 0.355235 6.139902
v 1.371582 0.340166 6.139902
v 1.379005 0.326279 6.139902
v 1.388995 0.314106 6.139902
v 1.401167 0.304116 6.139902
v 1.415055 0.296693 6.139902
v 1.430123 0.292122 6.139902
vn -0.2599 0.8567 0.4455
vn 0.0878 0.8910 0.4455
vn -0.4220 0.7896 0.4455
vn -0.5680 0.6921 0.4455
vn -0.6921 0.5680 0.4455
vn -0.7896 0.4220 0.4455
vn -0.8567 0.2599 0.4455
vn -0.8910 0.0877 0.4455
vn -0.8910 -0.0877 0.4455
vn -0.8567 -0.2599 0.4455
vn -0.7896 -0.4220 0.4455
vn -0.6921 -0.5680 0.4455
vn -0.5680 -0.6921 0.4455
vn -0.4220 -0.7896 0.4455
vn -0.2599 -0.8567 0.4455
vn -0.0878 -0.8910 0.4455
vn 0.0878 -0.8910 0.4455
vn 0.2599 -0.8567 0.4455
vn 0.4220 -0.7896 0.4455
vn 0.5680 -0.6921 0.4455
vn 0.6921 -0.5680 0.4455
vn 0.7896 -0.4220 0.4455
vn 0.8567 -0.2599 0.4455
vn 0.8910 -0.0877 0.4455
vn 0.8910 0.0877 0.4455
vn 0.8567 0.2599 0.4455
vn 0.7896 0.4220 0.4455
vn 0.6921 0.5680 0.4455
vn 0.5680 0.6921 0.4455
vn 0.4220 0.7896 0.4455
vn -0.0878 0.8910 0.4455
vn 0.2599 0.8567 0.4455
vn -0.0000 0.0000 -1.0000
vn -0.2599 -0.8567 -0.4455
vn 0.0877 -0.8910 -0.4455
vn -0.4220 -0.7896 -0.4455
vn -0.5680 -0.6921 -0.4455
vn -0.6921 -0.5680 -0.4455
vn -0.7896 -0.4221 -0.4455
vn -0.8567 -0.2599 -0.4455
vn -0.8910 -0.0877 -0.4455
vn -0.8910 0.0877 -0.4455
vn -0.8567 0.2599 -0.4455
vn -0.7896 0.4220 -0.4455
vn -0.6921 0.5680 -0.4455
vn -0.5680 0.6921 -0.4455
vn -0.4220 0.7896 -0.4455
vn -0.2599 0.8567 -0.4455
vn -0.0877 0.8910 -0.4455
vn 0.0877 0.8910 -0.4455
vn 0.2599 0.8567 -0.4455
vn 0.4220 0.7896 -0.4455
vn 0.5680 0.6921 -0.4455
vn 0.6921 0.5680 -0.4455
vn 0.7896 0.4220 -0.4455
vn 0.8567 0.2599 -0.4455
vn 0.8910 0.0877 -0.4455
vn 0.8910 -0.0877 -0.4455
vn 0.8567 -0.2599 -0.4455
vn 0.7896 -0.4220 -0.4455
vn 0.6921 -0.5680 -0.4455
vn 0.5680 -0.6921 -0.4455
vn 0.4220 -0.7896 -0.4455
vn -0.0877 -0.8910 -0.4455
vn 0.2599 -0.8567 -0.4455
vn 0.0000 0.0000 1.0000
usemtl Material.130
s off
f 32//1 10//1 33//1
f 1//2 10//2 2//2
f 31//3 10//3 32//3
f 30//4 10//4 31//4
f 29//5 10//5 30//5
f 28//6 10//6 29//6
f 27//7 10//7 28//7
f 26//8 10//8 27//8
f 25//9 10//9 26//9
f 24//10 10//10 25//10
f 23//11 10//11 24//11
f 22//12 10//12 23//12
f 21//13 10//13 22//13
f 20//14 10//14 21//14
f 19//15 10//15 20//15
f 18//16 10//16 19//16
f 17//17 10//17 18//17
f 16//18 10//18 17//18
f 15//19 10//19 16//19
f 14//20 10//20 15//20
f 13//21 10//21 14//21
f 12//22 10//22 13//22
f 11//23 10//23 12//23
f 9//24 10//24 11//24
f 8//25 10//25 9//25
f 7//26 10//26 8//26
f 6//27 10//27 7//27
f 5//28 10//28 6//28
f 4//29 10//29 5//29
f 3//30 10//30 4//30
f 33//31 10//31 1//31
f 2//32 10//32 3//32
f 1//33 2//33 3//33 4//33 5//33 6//33 7//33 8//33 9//33 11//33 12//33 13//33 14//33 15//33 16//33 17//33 18//33 19//33 20//33 21//33 22//33 23//33 24//33 25//33 26//33 27//33 28//33 29//33 30//33 31//33 32//33 33//33
f 65//34 43//34 66//34
f 34//35 43//35 35//35
f 64//36 43//36 65//36
f 63//37 43//37 64//37
f 62//38 43//38 63//38
f 61//39 43//39 62//39
f 60//40 43//40 61//40
f 59//41 43//41 60//41
f 58//42 43//42 59//42
f 57//43 43//43 58//43
f 56//44 43//44 57//44
f 55//45 43//45 56//45
f 54//46 43//46 55//46
f 53//47 43//47 54//47
f 52//48 43//48 53//48
f 51//49 43//49 52//49
f 50//50 43//50 51//50
f 49//51 43//51 50//51
f 48//52 43//52 49//52
f 47//53 43//53 48//53
f 46//54 43//54 47//54
f 45//55 43//55 46//55
f 44//56 43//56 45//56
f 42//57 43//57 44//57
f 41//58 43//58 42//58
f 40//59 43//59 41//59
f 39//60 43//60 40//60
f 38//61 43//61 39//61
f 37//62 43//62 38//62
f 36//63 43//63 37//63
f 66//64 43//64 34//64
f 35//65 43//65 36//65
f 34//66 35//66 36//66 37//66 38//66 39//66 40//66 41//66 42//66 44//66 45//66 46//66 47//66 48//66 49//66 50//66 51//66 52//66 53//66 54//66 55//66 56//66 57//66 58//66 59//66 60//66 61//66 62//66 63//66 64//66 65//66 66//66
