# Blender v2.79 (sub 0) OBJ File: ''
# www.blender.org
mtllib edifext7.mtl
o edifext9_Cube.014
v -11.329062 0.000000 2.193760
v -11.329062 2.000000 2.193760
v -11.329062 0.000000 0.193760
v -11.329062 2.000000 0.193760
v -10.729061 0.000000 2.193760
v -10.729061 2.000000 2.193760
v -10.729061 0.000000 0.193760
v -10.729061 2.000000 0.193760
v -14.842899 0.000000 3.229487
v -14.842899 6.000000 3.229487
v -14.842899 0.000000 -0.770512
v -14.842899 6.000000 -0.770512
v -10.842899 0.000000 3.229487
v -10.842899 6.000000 3.229487
v -10.842899 0.000000 -0.770512
v -10.842899 6.000000 -0.770512
vn -1.0000 0.0000 0.0000
vn 0.0000 0.0000 -1.0000
vn 1.0000 0.0000 0.0000
vn 0.0000 0.0000 1.0000
vn 0.0000 -1.0000 0.0000
vn 0.0000 1.0000 0.0000
usemtl Material.042
s off
f 2//1 4//1 3//1 1//1
f 4//2 8//2 7//2 3//2
f 8//3 6//3 5//3 7//3
f 6//4 2//4 1//4 5//4
f 1//5 3//5 7//5 5//5
f 6//6 8//6 4//6 2//6
f 10//1 12//1 11//1 9//1
f 12//2 16//2 15//2 11//2
f 16//3 14//3 13//3 15//3
f 14//4 10//4 9//4 13//4
f 9//5 11//5 15//5 13//5
f 14//6 16//6 12//6 10//6
