# Blender v2.79 (sub 0) OBJ File: ''
# www.blender.org
mtllib edifext8.mtl
o edificio1_Cube.018
v -3.789387 0.000000 -2.180655
v -3.789387 1.800000 -2.180655
v -3.789387 0.000000 -4.180655
v -3.789387 1.800000 -4.180655
v -2.589386 0.000000 -2.180655
v -2.589386 1.800000 -2.180655
v -2.589386 0.000000 -4.180655
v -2.589386 1.800000 -4.180655
v -4.157546 0.000000 -3.249708
v -4.157546 2.000000 -3.249708
v -4.157546 0.000000 -5.249708
v -4.157546 2.000000 -5.249708
v -2.157546 0.000000 -3.249708
v -2.157546 2.000000 -3.249708
v -2.157546 0.000000 -5.249708
v -2.157546 2.000000 -5.249708
v -2.305564 0.000000 -2.249888
v -2.305564 8.000000 -2.249888
v -2.305564 0.000000 -3.749888
v -2.305564 8.000000 -3.749888
v -0.805564 0.000000 -2.249888
v -0.805564 8.000000 -2.249888
v -0.805564 0.000000 -3.749888
v -0.805564 8.000000 -3.749888
v -5.676078 0.000000 -2.178288
v -5.676078 8.000000 -2.178288
v -5.676078 0.000000 -3.678288
v -5.676078 8.000000 -3.678288
v -4.176078 0.000000 -2.178288
v -4.176078 8.000000 -2.178288
v -4.176078 0.000000 -3.678288
v -4.176078 8.000000 -3.678288
v -4.505724 7.884531 -5.592227
v -4.505724 8.997326 -5.592227
v -4.397176 7.884531 -5.581536
v -4.397176 8.997326 -5.581536
v -4.292800 7.884531 -5.549874
v -4.292800 8.997326 -5.549874
v -4.196606 7.884531 -5.498457
v -4.196606 8.997326 -5.498457
v -4.112291 7.884531 -5.429262
v -4.112291 8.997326 -5.429262
v -4.043096 7.884531 -5.344948
v -4.043096 8.997326 -5.344948
v -3.991680 7.884531 -5.248754
v -3.991680 8.997326 -5.248754
v -3.960017 7.884531 -5.144378
v -3.960017 8.997326 -5.144378
v -3.949326 7.884531 -5.035830
v -3.949326 8.997326 -5.035830
v -3.960017 7.884531 -4.927282
v -3.960017 8.997326 -4.927282
v -3.991680 7.884531 -4.822906
v -3.991680 8.997326 -4.822906
v -4.043096 7.884531 -4.726712
v -4.043096 8.997326 -4.726712
v -4.112291 7.884531 -4.642397
v -4.112291 8.997326 -4.642397
v -4.196606 7.884531 -4.573202
v -4.196606 8.997326 -4.573202
v -4.292800 7.884531 -4.521786
v -4.292800 8.997326 -4.521786
v -4.397176 7.884531 -4.490124
v -4.397176 8.997326 -4.490124
v -4.505724 7.884531 -4.479433
v -4.505724 8.997326 -4.479433
v -4.614272 7.884531 -4.490124
v -4.614272 8.997326 -4.490124
v -4.718648 7.884531 -4.521786
v -4.718648 8.997326 -4.521786
v -4.814842 7.884531 -4.573203
v -4.814842 8.997326 -4.573203
v -4.899157 7.884531 -4.642398
v -4.899157 8.997326 -4.642398
v -4.968351 7.884531 -4.726712
v -4.968351 8.997326 -4.726712
v -5.019768 7.884531 -4.822906
v -5.019768 8.997326 -4.822906
v -5.051430 7.884531 -4.927283
v -5.051430 8.997326 -4.927283
v -5.062121 7.884531 -5.035830
v -5.062121 8.997326 -5.035830
v -5.051430 7.884531 -5.144378
v -5.051430 8.997326 -5.144378
v -5.019768 7.884531 -5.248755
v -5.019768 8.997326 -5.248755
v -4.968351 7.884531 -5.344948
v -4.968351 8.997326 -5.344948
v -4.899156 7.884531 -5.429263
v -4.899156 8.997326 -5.429263
v -4.814841 7.884531 -5.498458
v -4.814841 8.997326 -5.498458
v -4.718647 7.884531 -5.549874
v -4.718647 8.997326 -5.549874
v -4.614271 7.884531 -5.581536
v -4.614271 8.997326 -5.581536
v -0.727979 0.000000 -6.634408
v -0.727979 0.000000 -3.634410
v -5.727977 0.000000 -3.634410
v -5.727975 0.000000 -6.634409
v -0.727978 8.000000 -6.634408
v -0.727980 8.000000 -3.634409
v -5.727977 8.000000 -3.634410
v -5.727976 8.000000 -6.634408
vn -1.0000 0.0000 0.0000
vn 0.0000 0.0000 -1.0000
vn 1.0000 0.0000 0.0000
vn 0.0000 0.0000 1.0000
vn 0.0000 -1.0000 0.0000
vn 0.0000 1.0000 0.0000
vn 0.0980 0.0000 -0.9952
vn 0.2903 0.0000 -0.9569
vn 0.4714 0.0000 -0.8819
vn 0.6344 0.0000 -0.7730
vn 0.7730 0.0000 -0.6344
vn 0.8819 0.0000 -0.4714
vn 0.9569 0.0000 -0.2903
vn 0.9952 0.0000 -0.0980
vn 0.9952 0.0000 0.0980
vn 0.9569 0.0000 0.2903
vn 0.8819 0.0000 0.4714
vn 0.7730 0.0000 0.6344
vn 0.6344 0.0000 0.7730
vn 0.4714 0.0000 0.8819
vn 0.2903 0.0000 0.9569
vn 0.0980 0.0000 0.9952
vn -0.0980 0.0000 0.9952
vn -0.2903 0.0000 0.9569
vn -0.4714 0.0000 0.8819
vn -0.6344 0.0000 0.7730
vn -0.7730 0.0000 0.6344
vn -0.8819 0.0000 0.4714
vn -0.9569 0.0000 0.2903
vn -0.9952 0.0000 0.0980
vn -0.9952 0.0000 -0.0980
vn -0.9569 0.0000 -0.2903
vn -0.8819 0.0000 -0.4714
vn -0.7730 0.0000 -0.6344
vn -0.6344 0.0000 -0.7730
vn -0.4714 0.0000 -0.8819
vn -0.0980 0.0000 -0.9952
vn -0.2903 0.0000 -0.9569
usemtl Material.043
s off
f 2//1 4//1 3//1 1//1
f 4//2 8//2 7//2 3//2
f 8//3 6//3 5//3 7//3
f 6//4 2//4 1//4 5//4
f 1//5 3//5 7//5 5//5
f 6//6 8//6 4//6 2//6
f 10//1 12//1 11//1 9//1
f 12//2 16//2 15//2 11//2
f 16//3 14//3 13//3 15//3
f 14//4 10//4 9//4 13//4
f 9//5 11//5 15//5 13//5
f 14//6 16//6 12//6 10//6
f 18//1 20//1 19//1 17//1
f 20//2 24//2 23//2 19//2
f 24//3 22//3 21//3 23//3
f 22//4 18//4 17//4 21//4
f 17//5 19//5 23//5 21//5
f 22//6 24//6 20//6 18//6
f 26//1 28//1 27//1 25//1
f 28//2 32//2 31//2 27//2
f 32//3 30//3 29//3 31//3
f 30//4 26//4 25//4 29//4
f 25//5 27//5 31//5 29//5
f 30//6 32//6 28//6 26//6
f 33//7 34//7 36//7 35//7
f 35//8 36//8 38//8 37//8
f 37//9 38//9 40//9 39//9
f 39//10 40//10 42//10 41//10
f 41//11 42//11 44//11 43//11
f 43//12 44//12 46//12 45//12
f 45//13 46//13 48//13 47//13
f 47//14 48//14 50//14 49//14
f 49//15 50//15 52//15 51//15
f 51//16 52//16 54//16 53//16
f 53//17 54//17 56//17 55//17
f 55//18 56//18 58//18 57//18
f 57//19 58//19 60//19 59//19
f 59//20 60//20 62//20 61//20
f 61//21 62//21 64//21 63//21
f 63//22 64//22 66//22 65//22
f 65//23 66//23 68//23 67//23
f 67//24 68//24 70//24 69//24
f 69//25 70//25 72//25 71//25
f 71//26 72//26 74//26 73//26
f 73//27 74//27 76//27 75//27
f 75//28 76//28 78//28 77//28
f 77//29 78//29 80//29 79//29
f 79//30 80//30 82//30 81//30
f 81//31 82//31 84//31 83//31
f 83//32 84//32 86//32 85//32
f 85//33 86//33 88//33 87//33
f 87//34 88//34 90//34 89//34
f 89//35 90//35 92//35 91//35
f 91//36 92//36 94//36 93//36
f 36//6 34//6 96//6 94//6 92//6 90//6 88//6 86//6 84//6 82//6 80//6 78//6 76//6 74//6 72//6 70//6 68//6 66//6 64//6 62//6 60//6 58//6 56//6 54//6 52//6 50//6 48//6 46//6 44//6 42//6 40//6 38//6
f 95//37 96//37 34//37 33//37
f 93//38 94//38 96//38 95//38
f 33//5 35//5 37//5 39//5 41//5 43//5 45//5 47//5 49//5 51//5 53//5 55//5 57//5 59//5 61//5 63//5 65//5 67//5 69//5 71//5 73//5 75//5 77//5 79//5 81//5 83//5 85//5 87//5 89//5 91//5 93//5 95//5
f 97//5 98//5 99//5 100//5
f 101//6 104//6 103//6 102//6
f 97//3 101//3 102//3 98//3
f 98//4 102//4 103//4 99//4
f 99//1 103//1 104//1 100//1
f 101//2 97//2 100//2 104//2
