# Blender v2.79 (sub 0) OBJ File: ''
# www.blender.org
mtllib edifext2.mtl
o edifext3_Cube.016
v 0.339034 0.000000 11.740741
v 0.339034 2.000000 11.740741
v 0.339034 0.000000 11.140740
v 0.339034 2.000000 11.140740
v 2.339034 0.000000 11.740741
v 2.339034 2.000000 11.740741
v 2.339034 0.000000 11.140740
v 2.339034 2.000000 11.140740
v -1.356529 0.000000 14.506975
v -1.356529 7.000000 14.506975
v -1.356529 0.000000 11.506975
v -1.356529 7.000000 11.506975
v 3.643471 0.000000 14.506975
v 3.643471 7.000000 14.506975
v 3.643471 0.000000 11.506975
v 3.643471 7.000000 11.506975
vn -1.0000 0.0000 0.0000
vn 0.0000 0.0000 -1.0000
vn 1.0000 0.0000 0.0000
vn 0.0000 0.0000 1.0000
vn 0.0000 -1.0000 0.0000
vn 0.0000 1.0000 0.0000
usemtl Material.036
s off
f 2//1 4//1 3//1 1//1
f 4//2 8//2 7//2 3//2
f 8//3 6//3 5//3 7//3
f 6//4 2//4 1//4 5//4
f 1//5 3//5 7//5 5//5
f 6//6 8//6 4//6 2//6
f 10//1 12//1 11//1 9//1
f 12//2 16//2 15//2 11//2
f 16//3 14//3 13//3 15//3
f 14//4 10//4 9//4 13//4
f 9//5 11//5 15//5 13//5
f 14//6 16//6 12//6 10//6
