# Blender v2.79 (sub 0) OBJ File: ''
# www.blender.org
mtllib farola.mtl
o farola1_Cylinder.005
v 0.106226 2.653259 1.363245
v 0.106226 2.952448 1.363245
v 0.105145 2.653259 1.372987
v 0.105145 2.952448 1.372987
v 0.102183 2.653259 1.382331
v 0.102183 2.952448 1.382331
v 0.097456 2.653259 1.390917
v 0.097456 2.952448 1.390917
v 0.091145 2.653259 1.398416
v 0.091145 2.952448 1.398416
v 0.083491 2.653259 1.404540
v 0.083491 2.952448 1.404540
v 0.074790 2.653259 1.409053
v 0.074790 2.952448 1.409053
v 0.065376 2.653259 1.411782
v 0.065376 2.952448 1.411782
v 0.055610 2.653259 1.412622
v 0.055610 2.952448 1.412622
v 0.045869 2.653259 1.411540
v 0.045869 2.952448 1.411540
v 0.036525 2.653259 1.408579
v 0.036525 2.952448 1.408579
v 0.027939 2.653259 1.403852
v 0.027939 2.952448 1.403852
v 0.020439 2.653259 1.397540
v 0.020439 2.952448 1.397540
v 0.014316 2.653259 1.389887
v 0.014316 2.952448 1.389887
v 0.009802 2.653259 1.381186
v 0.009802 2.952448 1.381186
v 0.007074 2.653259 1.371772
v 0.007074 2.952448 1.371772
v 0.006234 2.653259 1.362006
v 0.006234 2.952448 1.362006
v 0.007315 2.653259 1.352264
v 0.007315 2.952448 1.352264
v 0.010277 2.653259 1.342921
v 0.010277 2.952448 1.342921
v 0.015004 2.653259 1.334334
v 0.015004 2.952448 1.334334
v 0.021315 2.653259 1.326835
v 0.021315 2.952448 1.326835
v 0.028969 2.653259 1.320711
v 0.028969 2.952448 1.320711
v 0.037670 2.653259 1.316198
v 0.037670 2.952448 1.316198
v 0.047084 2.653259 1.313469
v 0.047084 2.952448 1.313469
v 0.056850 2.653259 1.312629
v 0.056850 2.952448 1.312629
v 0.066591 2.653259 1.313711
v 0.066591 2.952448 1.313711
v 0.075935 2.653259 1.316672
v 0.075935 2.952448 1.316672
v 0.084522 2.653259 1.321400
v 0.084522 2.952448 1.321400
v 0.092021 2.653259 1.327711
v 0.092021 2.952448 1.327711
v 0.098145 2.653259 1.335364
v 0.098145 2.952448 1.335364
v 0.102658 2.653259 1.344065
v 0.102658 2.952448 1.344065
v 0.105386 2.653259 1.353480
v 0.105386 2.952448 1.353480
v 0.097963 2.943836 1.910384
v 0.095319 2.959705 1.310601
v 0.097014 2.953562 1.910647
v 0.094371 2.969431 1.310864
v 0.094180 2.962916 1.910909
v 0.091537 2.978785 1.311125
v 0.089570 2.971539 1.911158
v 0.086927 2.987408 1.311375
v 0.083362 2.979099 1.911387
v 0.080718 2.994969 1.311604
v 0.075792 2.985307 1.911585
v 0.073149 3.001176 1.311802
v 0.067154 2.989923 1.911746
v 0.064510 3.005792 1.311963
v 0.057778 2.992769 1.911863
v 0.055134 3.008639 1.312080
v 0.048024 2.993738 1.911932
v 0.045381 3.009608 1.312149
v 0.038269 2.992791 1.911950
v 0.035625 3.008660 1.312167
v 0.028886 2.989965 1.911916
v 0.026242 3.005834 1.312133
v 0.020236 2.985368 1.911832
v 0.017593 3.001237 1.312049
v 0.012652 2.979177 1.911700
v 0.010008 2.995047 1.311917
v 0.006424 2.971630 1.911527
v 0.003781 2.987500 1.311744
v 0.001793 2.963017 1.911319
v -0.000850 2.978887 1.311535
v -0.001063 2.953670 1.911083
v -0.003707 2.969539 1.311299
v -0.002036 2.943946 1.910828
v -0.004680 2.959815 1.311045
v -0.001087 2.934220 1.910565
v -0.003731 2.950089 1.310782
v 0.001747 2.924866 1.910304
v -0.000897 2.940735 1.310521
v 0.006356 2.916243 1.910054
v 0.003713 2.932112 1.310271
v 0.012565 2.908682 1.909826
v 0.009922 2.924552 1.310042
v 0.020134 2.902475 1.909627
v 0.017491 2.918344 1.309844
v 0.028773 2.897859 1.909466
v 0.026130 2.913728 1.309683
v 0.038149 2.895012 1.909349
v 0.035506 2.910882 1.309566
v 0.047902 2.894044 1.909280
v 0.045259 2.909913 1.309497
v 0.057658 2.894991 1.909263
v 0.055015 2.910860 1.309479
v 0.067041 2.897817 1.909297
v 0.064398 2.913686 1.309513
v 0.075691 2.902414 1.909381
v 0.073047 2.918283 1.309597
v 0.083275 2.908605 1.909512
v 0.080632 2.924474 1.309729
v 0.089503 2.916152 1.909685
v 0.086859 2.932021 1.309902
v 0.094134 2.924764 1.909894
v 0.091490 2.940634 1.310111
v 0.096990 2.934112 1.910130
v 0.094347 2.949982 1.310347
v 0.098609 0.009608 1.935773
v 0.098609 3.001498 1.935773
v 0.097528 0.009608 1.945515
v 0.097528 3.001498 1.945515
v 0.094566 0.009608 1.954859
v 0.094566 3.001498 1.954859
v 0.089839 0.009608 1.963445
v 0.089839 3.001498 1.963445
v 0.083528 0.009608 1.970944
v 0.083528 3.001498 1.970944
v 0.075874 0.009608 1.977068
v 0.075874 3.001498 1.977068
v 0.067173 0.009608 1.981581
v 0.067173 3.001498 1.981581
v 0.057759 0.009608 1.984310
v 0.057759 3.001498 1.984310
v 0.047994 0.009608 1.985150
v 0.047994 3.001498 1.985150
v 0.038252 0.009608 1.984068
v 0.038252 3.001498 1.984068
v 0.028908 0.009608 1.981107
v 0.028908 3.001498 1.981107
v 0.020322 0.009608 1.976380
v 0.020322 3.001498 1.976380
v 0.012822 0.009608 1.970068
v 0.012822 3.001498 1.970068
v 0.006699 0.009608 1.962415
v 0.006699 3.001498 1.962415
v 0.002186 0.009608 1.953714
v 0.002186 3.001498 1.953714
v -0.000543 0.009608 1.944300
v -0.000543 3.001498 1.944300
v -0.001383 0.009608 1.934534
v -0.001383 3.001498 1.934534
v -0.000301 0.009608 1.924792
v -0.000301 3.001498 1.924792
v 0.002660 0.009608 1.915449
v 0.002660 3.001498 1.915449
v 0.007387 0.009608 1.906862
v 0.007387 3.001498 1.906862
v 0.013699 0.009608 1.899363
v 0.013699 3.001498 1.899363
v 0.021352 0.009608 1.893239
v 0.021352 3.001498 1.893239
v 0.030053 0.009608 1.888726
v 0.030053 3.001498 1.888726
v 0.039467 0.009608 1.885997
v 0.039467 3.001498 1.885997
v 0.049233 0.009608 1.885157
v 0.049233 3.001498 1.885157
v 0.058975 0.009608 1.886239
v 0.058975 3.001498 1.886239
v 0.068318 0.009608 1.889200
v 0.068318 3.001498 1.889200
v 0.076905 0.009608 1.893928
v 0.076905 3.001498 1.893928
v 0.084404 0.009608 1.900239
v 0.084404 3.001498 1.900239
v 0.090528 0.009608 1.907892
v 0.090528 3.001498 1.907892
v 0.095041 0.009608 1.916593
v 0.095041 3.001498 1.916593
v 0.097770 0.009608 1.926008
v 0.097770 3.001498 1.926008
vn 0.9939 0.0000 0.1103
vn 0.9533 0.0000 0.3021
vn 0.8760 0.0000 0.4823
vn 0.7651 0.0000 0.6439
vn 0.6248 0.0000 0.7808
vn 0.4604 0.0000 0.8877
vn 0.2784 0.0000 0.9605
vn 0.0857 0.0000 0.9963
vn -0.1103 0.0000 0.9939
vn -0.3021 0.0000 0.9533
vn -0.4823 0.0000 0.8760
vn -0.6439 0.0000 0.7651
vn -0.7808 0.0000 0.6248
vn -0.8877 0.0000 0.4604
vn -0.9605 0.0000 0.2784
vn -0.9963 0.0000 0.0857
vn -0.9939 0.0000 -0.1103
vn -0.9533 0.0000 -0.3021
vn -0.8760 0.0000 -0.4823
vn -0.7651 0.0000 -0.6439
vn -0.6248 0.0000 -0.7808
vn -0.4604 0.0000 -0.8877
vn -0.2784 0.0000 -0.9605
vn -0.0857 0.0000 -0.9963
vn 0.1103 0.0000 -0.9939
vn 0.3021 0.0000 -0.9533
vn 0.4823 0.0000 -0.8760
vn 0.6439 0.0000 -0.7651
vn 0.7808 0.0000 -0.6248
vn 0.8877 0.0000 -0.4604
vn 0.0000 1.0000 0.0000
vn 0.9963 0.0000 -0.0857
vn 0.9605 0.0000 -0.2784
vn 0.0000 -1.0000 0.0000
vn 0.9953 0.0971 -0.0018
vn 0.9571 0.2898 0.0035
vn 0.8820 0.4712 0.0086
vn 0.7729 0.6343 0.0134
vn 0.6343 0.7729 0.0177
vn 0.4715 0.8816 0.0212
vn 0.2907 0.9565 0.0240
vn 0.0990 0.9948 0.0259
vn -0.0965 0.9950 0.0268
vn -0.2884 0.9571 0.0266
vn -0.4693 0.8827 0.0254
vn -0.6324 0.7743 0.0233
vn -0.7714 0.6361 0.0202
vn -0.8808 0.4732 0.0164
vn -0.9564 0.2920 0.0119
vn -0.9950 0.0993 0.0070
vn -0.9953 -0.0971 0.0018
vn -0.9571 -0.2898 -0.0035
vn -0.8820 -0.4712 -0.0086
vn -0.7729 -0.6343 -0.0134
vn -0.6343 -0.7729 -0.0177
vn -0.4715 -0.8816 -0.0212
vn -0.2907 -0.9565 -0.0240
vn -0.0990 -0.9948 -0.0259
vn 0.0965 -0.9950 -0.0268
vn 0.2884 -0.9571 -0.0266
vn 0.4693 -0.8827 -0.0254
vn 0.6324 -0.7743 -0.0233
vn 0.7714 -0.6360 -0.0202
vn 0.8808 -0.4732 -0.0164
vn -0.0044 0.0266 -0.9996
vn 0.9950 -0.0993 -0.0070
vn 0.9564 -0.2920 -0.0119
vn 0.0044 -0.0266 0.9996
vn 0.1104 0.0000 -0.9939
usemtl Material.047
s off
f 1//1 2//1 4//1 3//1
f 3//2 4//2 6//2 5//2
f 5//3 6//3 8//3 7//3
f 7//4 8//4 10//4 9//4
f 9//5 10//5 12//5 11//5
f 11//6 12//6 14//6 13//6
f 13//7 14//7 16//7 15//7
f 15//8 16//8 18//8 17//8
f 17//9 18//9 20//9 19//9
f 19//10 20//10 22//10 21//10
f 21//11 22//11 24//11 23//11
f 23//12 24//12 26//12 25//12
f 25//13 26//13 28//13 27//13
f 27//14 28//14 30//14 29//14
f 29//15 30//15 32//15 31//15
f 31//16 32//16 34//16 33//16
f 33//17 34//17 36//17 35//17
f 35//18 36//18 38//18 37//18
f 37//19 38//19 40//19 39//19
f 39//20 40//20 42//20 41//20
f 41//21 42//21 44//21 43//21
f 43//22 44//22 46//22 45//22
f 45//23 46//23 48//23 47//23
f 47//24 48//24 50//24 49//24
f 49//25 50//25 52//25 51//25
f 51//26 52//26 54//26 53//26
f 53//27 54//27 56//27 55//27
f 55//28 56//28 58//28 57//28
f 57//29 58//29 60//29 59//29
f 59//30 60//30 62//30 61//30
f 4//31 2//31 64//31 62//31 60//31 58//31 56//31 54//31 52//31 50//31 48//31 46//31 44//31 42//31 40//31 38//31 36//31 34//31 32//31 30//31 28//31 26//31 24//31 22//31 20//31 18//31 16//31 14//31 12//31 10//31 8//31 6//31
f 63//32 64//32 2//32 1//32
f 61//33 62//33 64//33 63//33
f 1//34 3//34 5//34 7//34 9//34 11//34 13//34 15//34 17//34 19//34 21//34 23//34 25//34 27//34 29//34 31//34 33//34 35//34 37//34 39//34 41//34 43//34 45//34 47//34 49//34 51//34 53//34 55//34 57//34 59//34 61//34 63//34
f 65//35 66//35 68//35 67//35
f 67//36 68//36 70//36 69//36
f 69//37 70//37 72//37 71//37
f 71//38 72//38 74//38 73//38
f 73//39 74//39 76//39 75//39
f 75//40 76//40 78//40 77//40
f 77//41 78//41 80//41 79//41
f 79//42 80//42 82//42 81//42
f 81//43 82//43 84//43 83//43
f 83//44 84//44 86//44 85//44
f 85//45 86//45 88//45 87//45
f 87//46 88//46 90//46 89//46
f 89//47 90//47 92//47 91//47
f 91//48 92//48 94//48 93//48
f 93//49 94//49 96//49 95//49
f 95//50 96//50 98//50 97//50
f 97//51 98//51 100//51 99//51
f 99//52 100//52 102//52 101//52
f 101//53 102//53 104//53 103//53
f 103//54 104//54 106//54 105//54
f 105//55 106//55 108//55 107//55
f 107//56 108//56 110//56 109//56
f 109//57 110//57 112//57 111//57
f 111//58 112//58 114//58 113//58
f 113//59 114//59 116//59 115//59
f 115//60 116//60 118//60 117//60
f 117//61 118//61 120//61 119//61
f 119//62 120//62 122//62 121//62
f 121//63 122//63 124//63 123//63
f 123//64 124//64 126//64 125//64
f 68//65 66//65 128//65 126//65 124//65 122//65 120//65 118//65 116//65 114//65 112//65 110//65 108//65 106//65 104//65 102//65 100//65 98//65 96//65 94//65 92//65 90//65 88//65 86//65 84//65 82//65 80//65 78//65 76//65 74//65 72//65 70//65
f 127//66 128//66 66//66 65//66
f 125//67 126//67 128//67 127//67
f 65//68 67//68 69//68 71//68 73//68 75//68 77//68 79//68 81//68 83//68 85//68 87//68 89//68 91//68 93//68 95//68 97//68 99//68 101//68 103//68 105//68 107//68 109//68 111//68 113//68 115//68 117//68 119//68 121//68 123//68 125//68 127//68
f 129//1 130//1 132//1 131//1
f 131//2 132//2 134//2 133//2
f 133//3 134//3 136//3 135//3
f 135//4 136//4 138//4 137//4
f 137//5 138//5 140//5 139//5
f 139//6 140//6 142//6 141//6
f 141//7 142//7 144//7 143//7
f 143//8 144//8 146//8 145//8
f 145//9 146//9 148//9 147//9
f 147//10 148//10 150//10 149//10
f 149//11 150//11 152//11 151//11
f 151//12 152//12 154//12 153//12
f 153//13 154//13 156//13 155//13
f 155//14 156//14 158//14 157//14
f 157//15 158//15 160//15 159//15
f 159//16 160//16 162//16 161//16
f 161//17 162//17 164//17 163//17
f 163//18 164//18 166//18 165//18
f 165//19 166//19 168//19 167//19
f 167//20 168//20 170//20 169//20
f 169//21 170//21 172//21 171//21
f 171//22 172//22 174//22 173//22
f 173//23 174//23 176//23 175//23
f 175//24 176//24 178//24 177//24
f 177//69 178//69 180//69 179//69
f 179//26 180//26 182//26 181//26
f 181//27 182//27 184//27 183//27
f 183//28 184//28 186//28 185//28
f 185//29 186//29 188//29 187//29
f 187//30 188//30 190//30 189//30
f 132//31 130//31 192//31 190//31 188//31 186//31 184//31 182//31 180//31 178//31 176//31 174//31 172//31 170//31 168//31 166//31 164//31 162//31 160//31 158//31 156//31 154//31 152//31 150//31 148//31 146//31 144//31 142//31 140//31 138//31 136//31 134//31
f 191//32 192//32 130//32 129//32
f 189//33 190//33 192//33 191//33
f 129//34 131//34 133//34 135//34 137//34 139//34 141//34 143//34 145//34 147//34 149//34 151//34 153//34 155//34 157//34 159//34 161//34 163//34 165//34 167//34 169//34 171//34 173//34 175//34 177//34 179//34 181//34 183//34 185//34 187//34 189//34 191//34
