# Blender v2.79 (sub 0) OBJ File: ''
# www.blender.org
mtllib lapiz.mtl
o lapiz_Cone.002
v -0.885724 1.011083 -0.463258
v -0.885724 1.009421 -0.463094
v -0.885724 1.007823 -0.462609
v -0.885724 1.006349 -0.461822
v -0.885724 1.005058 -0.460762
v -0.885724 1.003999 -0.459471
v -0.885724 1.003211 -0.457998
v -0.885724 1.002726 -0.456399
v -0.885724 1.002563 -0.454737
v -0.868682 1.011083 -0.454737
v -0.885724 1.002726 -0.453074
v -0.885724 1.003211 -0.451476
v -0.885724 1.003999 -0.450003
v -0.885724 1.005058 -0.448712
v -0.885724 1.006349 -0.447652
v -0.885724 1.007823 -0.446864
v -0.885724 1.009421 -0.446380
v -0.885724 1.011083 -0.446216
v -0.885724 1.012746 -0.446380
v -0.885724 1.014344 -0.446864
v -0.885724 1.015817 -0.447652
v -0.885724 1.017109 -0.448712
v -0.885724 1.018168 -0.450003
v -0.885724 1.018956 -0.451476
v -0.885724 1.019441 -0.453074
v -0.885724 1.019604 -0.454737
v -0.885724 1.019441 -0.456399
v -0.885724 1.018956 -0.457998
v -0.885724 1.018168 -0.459471
v -0.885724 1.017109 -0.460762
v -0.885724 1.015817 -0.461822
v -0.885724 1.014344 -0.462609
v -0.885724 1.012746 -0.463094
v -0.953989 1.011083 -0.463258
v -0.885822 1.011083 -0.463258
v -0.953989 1.009421 -0.463094
v -0.885822 1.009421 -0.463094
v -0.953989 1.007823 -0.462609
v -0.885822 1.007823 -0.462609
v -0.953989 1.006349 -0.461822
v -0.885822 1.006349 -0.461822
v -0.953989 1.005058 -0.460762
v -0.885822 1.005058 -0.460762
v -0.953989 1.003999 -0.459471
v -0.885822 1.003999 -0.459471
v -0.953989 1.003211 -0.457998
v -0.885822 1.003211 -0.457998
v -0.953989 1.002726 -0.456399
v -0.885822 1.002726 -0.456399
v -0.953989 1.002563 -0.454737
v -0.885822 1.002563 -0.454737
v -0.953989 1.002726 -0.453074
v -0.885822 1.002726 -0.453074
v -0.953989 1.003211 -0.451476
v -0.885822 1.003211 -0.451476
v -0.953989 1.003999 -0.450003
v -0.885822 1.003999 -0.450003
v -0.953989 1.005058 -0.448712
v -0.885822 1.005058 -0.448712
v -0.953989 1.006349 -0.447652
v -0.885822 1.006349 -0.447652
v -0.953989 1.007823 -0.446864
v -0.885822 1.007823 -0.446864
v -0.953989 1.009421 -0.446380
v -0.885822 1.009421 -0.446380
v -0.953989 1.011083 -0.446216
v -0.885822 1.011083 -0.446216
v -0.953989 1.012746 -0.446380
v -0.885822 1.012746 -0.446380
v -0.953989 1.014344 -0.446864
v -0.885822 1.014344 -0.446864
v -0.953989 1.015817 -0.447652
v -0.885822 1.015817 -0.447652
v -0.953989 1.017109 -0.448712
v -0.885822 1.017109 -0.448712
v -0.953989 1.018168 -0.450003
v -0.885822 1.018168 -0.450003
v -0.953989 1.018956 -0.451476
v -0.885822 1.018956 -0.451476
v -0.953989 1.019441 -0.453074
v -0.885822 1.019441 -0.453074
v -0.953989 1.019604 -0.454737
v -0.885822 1.019604 -0.454737
v -0.953989 1.019441 -0.456399
v -0.885822 1.019441 -0.456399
v -0.953989 1.018956 -0.457998
v -0.885822 1.018956 -0.457998
v -0.953989 1.018168 -0.459471
v -0.885822 1.018168 -0.459471
v -0.953989 1.017109 -0.460762
v -0.885822 1.017109 -0.460762
v -0.953989 1.015817 -0.461822
v -0.885822 1.015817 -0.461822
v -0.953989 1.014344 -0.462609
v -0.885822 1.014344 -0.462609
v -0.953989 1.012746 -0.463094
v -0.885822 1.012746 -0.463094
vn 0.4455 0.2599 -0.8567
vn 0.4455 -0.0878 -0.8910
vn 0.4455 0.4220 -0.7896
vn 0.4455 0.5679 -0.6921
vn 0.4455 0.6921 -0.5679
vn 0.4455 0.7896 -0.4219
vn 0.4455 0.8567 -0.2600
vn 0.4455 0.8910 -0.0878
vn 0.4455 0.8910 0.0878
vn 0.4455 0.8567 0.2600
vn 0.4455 0.7896 0.4219
vn 0.4455 0.6921 0.5679
vn 0.4455 0.5679 0.6921
vn 0.4455 0.4220 0.7896
vn 0.4455 0.2599 0.8568
vn 0.4455 0.0878 0.8910
vn 0.4455 -0.0878 0.8910
vn 0.4455 -0.2599 0.8568
vn 0.4454 -0.4220 0.7896
vn 0.4455 -0.5679 0.6921
vn 0.4455 -0.6921 0.5679
vn 0.4455 -0.7896 0.4219
vn 0.4455 -0.8567 0.2599
vn 0.4455 -0.8910 0.0879
vn 0.4455 -0.8910 -0.0879
vn 0.4455 -0.8567 -0.2599
vn 0.4455 -0.7896 -0.4219
vn 0.4455 -0.6921 -0.5679
vn 0.4455 -0.5679 -0.6921
vn 0.4454 -0.4220 -0.7896
vn 0.4455 0.0878 -0.8910
vn 0.4455 -0.2599 -0.8568
vn -1.0000 -0.0000 0.0000
vn 0.0000 -0.0980 -0.9952
vn -0.0000 -0.2903 -0.9569
vn -0.0000 -0.4714 -0.8819
vn 0.0000 -0.6344 -0.7730
vn 0.0000 -0.7730 -0.6344
vn 0.0000 -0.8819 -0.4714
vn 0.0000 -0.9569 -0.2903
vn 0.0000 -0.9952 -0.0980
vn 0.0000 -0.9952 0.0980
vn 0.0000 -0.9569 0.2903
vn 0.0000 -0.8819 0.4714
vn 0.0000 -0.7730 0.6344
vn 0.0000 -0.6344 0.7730
vn -0.0000 -0.4714 0.8819
vn -0.0000 -0.2903 0.9569
vn 0.0000 -0.0980 0.9952
vn 0.0000 0.0980 0.9952
vn 0.0000 0.2903 0.9569
vn 0.0000 0.4714 0.8819
vn 0.0000 0.6344 0.7730
vn 0.0000 0.7730 0.6344
vn 0.0000 0.8819 0.4714
vn 0.0000 0.9569 0.2903
vn 0.0000 0.9952 0.0980
vn 0.0000 0.9952 -0.0980
vn 0.0000 0.9569 -0.2903
vn 0.0000 0.8819 -0.4714
vn 0.0000 0.7730 -0.6344
vn 0.0000 0.6344 -0.7730
vn 0.0000 0.4714 -0.8819
vn 1.0000 0.0000 0.0000
vn 0.0000 0.0980 -0.9952
vn 0.0000 0.2903 -0.9569
usemtl Material.108
s off
f 32//1 10//1 33//1
f 1//2 10//2 2//2
f 31//3 10//3 32//3
f 30//4 10//4 31//4
f 29//5 10//5 30//5
f 28//6 10//6 29//6
f 27//7 10//7 28//7
f 26//8 10//8 27//8
f 25//9 10//9 26//9
f 24//10 10//10 25//10
f 23//11 10//11 24//11
f 22//12 10//12 23//12
f 21//13 10//13 22//13
f 20//14 10//14 21//14
f 19//15 10//15 20//15
f 18//16 10//16 19//16
f 17//17 10//17 18//17
f 16//18 10//18 17//18
f 15//19 10//19 16//19
f 14//20 10//20 15//20
f 13//21 10//21 14//21
f 12//22 10//22 13//22
f 11//23 10//23 12//23
f 9//24 10//24 11//24
f 8//25 10//25 9//25
f 7//26 10//26 8//26
f 6//27 10//27 7//27
f 5//28 10//28 6//28
f 4//29 10//29 5//29
f 3//30 10//30 4//30
f 33//31 10//31 1//31
f 2//32 10//32 3//32
f 1//33 2//33 3//33 4//33 5//33 6//33 7//33 8//33 9//33 11//33 12//33 13//33 14//33 15//33 16//33 17//33 18//33 19//33 20//33 21//33 22//33 23//33 24//33 25//33 26//33 27//33 28//33 29//33 30//33 31//33 32//33 33//33
f 34//34 35//34 37//34 36//34
f 36//35 37//35 39//35 38//35
f 38//36 39//36 41//36 40//36
f 40//37 41//37 43//37 42//37
f 42//38 43//38 45//38 44//38
f 44//39 45//39 47//39 46//39
f 46//40 47//40 49//40 48//40
f 48//41 49//41 51//41 50//41
f 50//42 51//42 53//42 52//42
f 52//43 53//43 55//43 54//43
f 54//44 55//44 57//44 56//44
f 56//45 57//45 59//45 58//45
f 58//46 59//46 61//46 60//46
f 60//47 61//47 63//47 62//47
f 62//48 63//48 65//48 64//48
f 64//49 65//49 67//49 66//49
f 66//50 67//50 69//50 68//50
f 68//51 69//51 71//51 70//51
f 70//52 71//52 73//52 72//52
f 72//53 73//53 75//53 74//53
f 74//54 75//54 77//54 76//54
f 76//55 77//55 79//55 78//55
f 78//56 79//56 81//56 80//56
f 80//57 81//57 83//57 82//57
f 82//58 83//58 85//58 84//58
f 84//59 85//59 87//59 86//59
f 86//60 87//60 89//60 88//60
f 88//61 89//61 91//61 90//61
f 90//62 91//62 93//62 92//62
f 92//63 93//63 95//63 94//63
f 37//64 35//64 97//64 95//64 93//64 91//64 89//64 87//64 85//64 83//64 81//64 79//64 77//64 75//64 73//64 71//64 69//64 67//64 65//64 63//64 61//64 59//64 57//64 55//64 53//64 51//64 49//64 47//64 45//64 43//64 41//64 39//64
f 96//65 97//65 35//65 34//65
f 94//66 95//66 97//66 96//66
f 34//33 36//33 38//33 40//33 42//33 44//33 46//33 48//33 50//33 52//33 54//33 56//33 58//33 60//33 62//33 64//33 66//33 68//33 70//33 72//33 74//33 76//33 78//33 80//33 82//33 84//33 86//33 88//33 90//33 92//33 94//33 96//33
