# Blender v2.79 (sub 0) OBJ File: ''
# www.blender.org
mtllib lavado.mtl
o lavabo_Cube.003
v 0.863184 1.056190 1.780445
v 0.863184 1.056190 1.980445
v 0.862703 1.051313 1.780445
v 0.862703 1.051313 1.980445
v 0.861281 1.046623 1.780445
v 0.861281 1.046623 1.980445
v 0.858970 1.042301 1.780445
v 0.858970 1.042301 1.980445
v 0.855861 1.038512 1.780445
v 0.855861 1.038512 1.980445
v 0.852073 1.035403 1.780445
v 0.852073 1.035403 1.980445
v 0.847751 1.033093 1.780445
v 0.847751 1.033093 1.980445
v 0.843061 1.031670 1.780445
v 0.843061 1.031670 1.980445
v 0.838184 1.031190 1.780445
v 0.838184 1.031190 1.980445
v 0.833306 1.031670 1.780445
v 0.833306 1.031670 1.980445
v 0.828616 1.033093 1.780445
v 0.828616 1.033093 1.980445
v 0.824294 1.035403 1.780445
v 0.824294 1.035403 1.980445
v 0.820506 1.038512 1.780445
v 0.820506 1.038512 1.980445
v 0.817397 1.042301 1.780445
v 0.817397 1.042301 1.980445
v 0.815087 1.046623 1.780445
v 0.815087 1.046623 1.980445
v 0.813664 1.051313 1.780445
v 0.813664 1.051313 1.980445
v 0.813184 1.056190 1.780445
v 0.813184 1.056190 1.980445
v 0.813664 1.061067 1.780445
v 0.813664 1.061067 1.980445
v 0.815087 1.065757 1.780445
v 0.815087 1.065757 1.980445
v 0.817397 1.070079 1.780445
v 0.817397 1.070079 1.980445
v 0.820506 1.073868 1.780445
v 0.820506 1.073868 1.980445
v 0.824294 1.076977 1.780445
v 0.824294 1.076977 1.980445
v 0.828616 1.079287 1.780445
v 0.828616 1.079287 1.980445
v 0.833306 1.080710 1.780445
v 0.833306 1.080710 1.980445
v 0.838184 1.081190 1.780445
v 0.838184 1.081190 1.980445
v 0.843061 1.080710 1.780445
v 0.843061 1.080710 1.980445
v 0.847751 1.079287 1.780445
v 0.847751 1.079287 1.980445
v 0.852073 1.076977 1.780445
v 0.852073 1.076977 1.980445
v 0.855861 1.073868 1.780445
v 0.855861 1.073868 1.980445
v 0.858970 1.070079 1.780445
v 0.858970 1.070079 1.980445
v 0.861281 1.065757 1.780445
v 0.861281 1.065757 1.980445
v 0.862703 1.061067 1.780445
v 0.862703 1.061067 1.980445
v 0.831898 1.012375 1.781896
v 0.862190 1.035516 1.803904
v 0.820327 1.035516 1.817507
v 0.794454 1.035516 1.781896
v 0.820327 1.035516 1.746285
v 0.862190 1.035516 1.759887
v 0.843468 1.072960 1.817507
v 0.801605 1.072960 1.803904
v 0.801605 1.072960 1.759887
v 0.843468 1.072960 1.746285
v 0.869341 1.072960 1.781896
v 0.831898 1.096102 1.781896
v 0.825097 1.018627 1.802827
v 0.849703 1.018627 1.794832
v 0.842902 1.032229 1.815764
v 0.867508 1.032229 1.781896
v 0.849703 1.018627 1.768960
v 0.809889 1.018627 1.781896
v 0.803088 1.032229 1.802827
v 0.825097 1.018627 1.760964
v 0.803088 1.032229 1.760964
v 0.842902 1.032229 1.748028
v 0.871712 1.054238 1.794832
v 0.871712 1.054238 1.768960
v 0.831898 1.054238 1.823759
v 0.856504 1.054238 1.815764
v 0.792083 1.054238 1.794832
v 0.807291 1.054238 1.815764
v 0.807291 1.054238 1.748028
v 0.792083 1.054238 1.768960
v 0.856504 1.054238 1.748028
v 0.831898 1.054238 1.740033
v 0.860707 1.076247 1.802827
v 0.820893 1.076247 1.815764
v 0.796287 1.076247 1.781896
v 0.820893 1.076247 1.748028
v 0.860707 1.076247 1.760964
v 0.838699 1.089849 1.802827
v 0.853906 1.089849 1.781896
v 0.814092 1.089849 1.794832
v 0.814092 1.089849 1.768960
v 0.838699 1.089849 1.760965
v 1.163221 1.059310 1.793381
v 1.163221 1.059310 1.993381
v 1.162741 1.054433 1.793381
v 1.162741 1.054433 1.993381
v 1.161318 1.049743 1.793381
v 1.161318 1.049743 1.993381
v 1.159008 1.045421 1.793381
v 1.159008 1.045421 1.993381
v 1.155899 1.041632 1.793381
v 1.155899 1.041632 1.993381
v 1.152110 1.038523 1.793381
v 1.152110 1.038523 1.993381
v 1.147788 1.036213 1.793381
v 1.147788 1.036213 1.993381
v 1.143098 1.034790 1.793381
v 1.143098 1.034790 1.993381
v 1.138221 1.034310 1.793381
v 1.138221 1.034310 1.993381
v 1.133344 1.034790 1.793381
v 1.133344 1.034790 1.993381
v 1.128654 1.036213 1.793381
v 1.128654 1.036213 1.993381
v 1.124332 1.038523 1.793381
v 1.124332 1.038523 1.993381
v 1.120543 1.041632 1.793381
v 1.120543 1.041632 1.993381
v 1.117434 1.045421 1.793381
v 1.117434 1.045421 1.993381
v 1.115124 1.049743 1.793380
v 1.115124 1.049743 1.993381
v 1.113701 1.054433 1.793380
v 1.113701 1.054433 1.993381
v 1.113221 1.059310 1.793380
v 1.113221 1.059310 1.993381
v 1.113701 1.064187 1.793380
v 1.113701 1.064187 1.993381
v 1.115124 1.068877 1.793380
v 1.115124 1.068877 1.993381
v 1.117434 1.073199 1.793381
v 1.117434 1.073199 1.993381
v 1.120543 1.076988 1.793381
v 1.120543 1.076988 1.993381
v 1.124332 1.080097 1.793381
v 1.124332 1.080097 1.993381
v 1.128654 1.082407 1.793381
v 1.128654 1.082407 1.993381
v 1.133344 1.083830 1.793381
v 1.133344 1.083830 1.993381
v 1.138221 1.084310 1.793381
v 1.138221 1.084310 1.993381
v 1.143098 1.083830 1.793381
v 1.143098 1.083830 1.993381
v 1.147788 1.082407 1.793381
v 1.147788 1.082407 1.993381
v 1.152110 1.080097 1.793381
v 1.152110 1.080097 1.993381
v 1.155899 1.076988 1.793381
v 1.155899 1.076988 1.993381
v 1.159008 1.073199 1.793381
v 1.159008 1.073199 1.993381
v 1.161318 1.068877 1.793381
v 1.161318 1.068877 1.993381
v 1.162741 1.064187 1.793381
v 1.162741 1.064187 1.993381
v 1.131935 1.015495 1.794832
v 1.162228 1.038636 1.816840
v 1.120365 1.038636 1.830443
v 1.094491 1.038636 1.794832
v 1.120365 1.038636 1.759221
v 1.162228 1.038636 1.772823
v 1.143506 1.076080 1.830443
v 1.101642 1.076080 1.816840
v 1.101642 1.076080 1.772823
v 1.143506 1.076080 1.759221
v 1.169379 1.076080 1.794832
v 1.131935 1.099222 1.794832
v 1.125134 1.021747 1.815763
v 1.149740 1.021747 1.807768
v 1.142940 1.035349 1.828700
v 1.167546 1.035349 1.794832
v 1.149740 1.021747 1.781896
v 1.109926 1.021747 1.794832
v 1.103125 1.035349 1.815763
v 1.125134 1.021747 1.773901
v 1.103125 1.035349 1.773900
v 1.142940 1.035349 1.760964
v 1.171749 1.057358 1.807768
v 1.171749 1.057358 1.781896
v 1.131935 1.057358 1.836695
v 1.156542 1.057358 1.828700
v 1.092121 1.057358 1.807768
v 1.107328 1.057358 1.828700
v 1.107328 1.057358 1.760964
v 1.092121 1.057358 1.781896
v 1.156542 1.057358 1.760964
v 1.131935 1.057358 1.752969
v 1.160745 1.079367 1.815763
v 1.120931 1.079367 1.828700
v 1.096324 1.079367 1.794832
v 1.120931 1.079367 1.760964
v 1.160745 1.079367 1.773900
v 1.138736 1.092969 1.815763
v 1.153944 1.092969 1.794832
v 1.114130 1.092969 1.807768
v 1.114130 1.092969 1.781896
v 1.138736 1.092969 1.773901
v 1.006210 1.070166 1.713839
v 1.006210 1.070166 1.863839
v 1.005730 1.065289 1.713839
v 1.005730 1.065289 1.863839
v 1.004307 1.060599 1.713839
v 1.004307 1.060599 1.863839
v 1.001997 1.056277 1.713839
v 1.001997 1.056277 1.863839
v 0.998888 1.052489 1.713839
v 0.998888 1.052489 1.863839
v 0.995099 1.049380 1.713839
v 0.995099 1.049380 1.863839
v 0.990777 1.047069 1.713839
v 0.990777 1.047069 1.863839
v 0.986087 1.045647 1.713839
v 0.986087 1.045647 1.863839
v 0.981210 1.045166 1.713839
v 0.981210 1.045166 1.863839
v 0.976333 1.045647 1.713839
v 0.976333 1.045647 1.863839
v 0.971643 1.047069 1.713839
v 0.971643 1.047069 1.863839
v 0.967321 1.049380 1.713839
v 0.967321 1.049380 1.863839
v 0.963532 1.052489 1.713839
v 0.963532 1.052489 1.863839
v 0.960423 1.056277 1.713839
v 0.960423 1.056277 1.863839
v 0.958113 1.060599 1.713839
v 0.958113 1.060599 1.863839
v 0.956690 1.065289 1.713839
v 0.956690 1.065289 1.863839
v 0.956210 1.070166 1.713839
v 0.956210 1.070166 1.863839
v 0.956690 1.075044 1.713839
v 0.956690 1.075044 1.863839
v 0.958113 1.079733 1.713839
v 0.958113 1.079733 1.863839
v 0.960423 1.084056 1.713839
v 0.960423 1.084056 1.863839
v 0.963532 1.087844 1.713839
v 0.963532 1.087844 1.863839
v 0.967321 1.090953 1.713839
v 0.967321 1.090953 1.863839
v 0.971643 1.093263 1.713839
v 0.971643 1.093263 1.863839
v 0.976333 1.094686 1.713839
v 0.976333 1.094686 1.863839
v 0.981210 1.095166 1.713839
v 0.981210 1.095166 1.863839
v 0.986087 1.094686 1.713839
v 0.986087 1.094686 1.863839
v 0.990777 1.093263 1.713839
v 0.990777 1.093263 1.863839
v 0.995099 1.090953 1.713839
v 0.995099 1.090953 1.863839
v 0.998888 1.087844 1.713839
v 0.998888 1.087844 1.863839
v 1.001997 1.084056 1.713839
v 1.001997 1.084056 1.863839
v 1.004307 1.079733 1.713839
v 1.004307 1.079733 1.863839
v 1.005730 1.075044 1.713839
v 1.005730 1.075044 1.863839
v 0.281210 1.158625 1.934984
v 0.281210 1.958625 1.934984
v 0.281210 1.158625 1.834984
v 0.281210 1.958625 1.834984
v 1.681210 1.158625 1.934984
v 1.681210 1.958625 1.934984
v 1.681210 1.158625 1.834984
v 1.681210 1.958625 1.834984
v 0.181211 0.000000 1.947499
v 0.181211 2.000000 1.947499
v 0.181211 0.000000 1.847499
v 0.181211 2.000000 1.847499
v 1.781211 0.000000 1.947499
v 1.781211 2.000000 1.947499
v 1.781211 0.000000 1.847499
v 1.781211 2.000000 1.847499
vn -1.0000 0.0000 0.0000
vn 0.0000 0.0000 -1.0000
vn 1.0000 0.0000 0.0000
vn 0.0000 0.0000 1.0000
vn 0.0000 -1.0000 0.0000
vn 0.0000 1.0000 0.0000
vn 0.9952 -0.0980 0.0000
vn 0.9569 -0.2903 0.0000
vn 0.8819 -0.4714 0.0000
vn 0.7730 -0.6344 0.0000
vn 0.6344 -0.7730 0.0000
vn 0.4714 -0.8819 0.0000
vn 0.2903 -0.9569 0.0000
vn 0.0980 -0.9952 0.0000
vn -0.0980 -0.9952 0.0000
vn -0.2903 -0.9569 0.0000
vn -0.4714 -0.8819 0.0000
vn -0.6344 -0.7730 0.0000
vn -0.7730 -0.6344 0.0000
vn -0.8819 -0.4714 0.0000
vn -0.9569 -0.2903 0.0000
vn -0.9952 -0.0980 0.0000
vn -0.9952 0.0980 0.0000
vn -0.9569 0.2903 0.0000
vn -0.8819 0.4714 0.0000
vn -0.7730 0.6344 0.0000
vn -0.6344 0.7730 0.0000
vn -0.4714 0.8819 0.0000
vn -0.2903 0.9569 -0.0000
vn -0.0980 0.9952 -0.0000
vn 0.0980 0.9952 0.0000
vn 0.2903 0.9569 -0.0000
vn 0.4714 0.8819 0.0000
vn 0.6344 0.7730 0.0000
vn 0.7730 0.6344 0.0000
vn 0.8819 0.4714 0.0000
vn 0.9952 0.0980 0.0000
vn 0.9569 0.2903 0.0000
vn 0.1024 -0.9435 0.3151
vn 0.7002 -0.6617 0.2680
vn -0.2680 -0.9435 0.1947
vn -0.2680 -0.9435 -0.1947
vn 0.1024 -0.9435 -0.3151
vn 0.9050 -0.3304 0.2680
vn 0.0247 -0.3304 0.9435
vn -0.8897 -0.3304 0.3151
vn -0.5746 -0.3304 -0.7488
vn 0.5346 -0.3304 -0.7779
vn 0.8026 -0.1256 0.5831
vn -0.3066 -0.1256 0.9435
vn -0.9921 -0.1256 0.0000
vn -0.3066 -0.1256 -0.9435
vn 0.8026 -0.1256 -0.5831
vn 0.4089 0.6617 0.6284
vn -0.4713 0.6617 0.5831
vn -0.7002 0.6617 -0.2680
vn 0.0385 0.6617 -0.7488
vn 0.7240 0.6617 -0.1947
vn 0.2680 0.9435 -0.1947
vn 0.4911 0.7947 -0.3568
vn 0.4089 0.6617 -0.6284
vn -0.1024 0.9435 -0.3151
vn -0.1876 0.7947 -0.5773
vn -0.4713 0.6617 -0.5831
vn -0.3313 0.9435 0.0000
vn -0.6071 0.7947 0.0000
vn -0.7002 0.6617 0.2680
vn -0.1024 0.9435 0.3151
vn -0.1876 0.7947 0.5773
vn 0.0385 0.6617 0.7488
vn 0.2680 0.9435 0.1947
vn 0.4911 0.7947 0.3568
vn 0.7240 0.6617 0.1947
vn 0.8897 0.3304 -0.3151
vn 0.7947 0.1876 -0.5773
vn 0.5746 0.3304 -0.7488
vn -0.0247 0.3304 -0.9435
vn -0.3035 0.1876 -0.9342
vn -0.5346 0.3304 -0.7779
vn -0.9050 0.3304 -0.2680
vn -0.9822 0.1876 0.0000
vn -0.9050 0.3304 0.2680
vn -0.5346 0.3304 0.7779
vn -0.3035 0.1876 0.9342
vn -0.0247 0.3304 0.9435
vn 0.5746 0.3304 0.7488
vn 0.7947 0.1876 0.5773
vn 0.8897 0.3304 0.3151
vn 0.3066 0.1256 -0.9435
vn 0.3035 -0.1876 -0.9342
vn 0.0247 -0.3304 -0.9435
vn -0.8026 0.1256 -0.5831
vn -0.7947 -0.1876 -0.5773
vn -0.8897 -0.3304 -0.3151
vn -0.8026 0.1256 0.5831
vn -0.7947 -0.1876 0.5773
vn -0.5746 -0.3304 0.7488
vn 0.3066 0.1256 0.9435
vn 0.3035 -0.1876 0.9342
vn 0.5346 -0.3304 0.7779
vn 0.9921 0.1256 0.0000
vn 0.9822 -0.1876 0.0000
vn 0.9050 -0.3304 -0.2680
vn 0.4713 -0.6617 -0.5831
vn 0.1876 -0.7947 -0.5773
vn -0.0385 -0.6617 -0.7488
vn -0.4089 -0.6617 -0.6284
vn -0.4911 -0.7947 -0.3568
vn -0.7240 -0.6617 -0.1947
vn -0.7240 -0.6617 0.1947
vn -0.4911 -0.7947 0.3568
vn -0.4089 -0.6617 0.6284
vn 0.7002 -0.6617 -0.2680
vn 0.6071 -0.7947 0.0000
vn 0.3313 -0.9435 0.0000
vn -0.0385 -0.6617 0.7488
vn 0.1876 -0.7947 0.5773
vn 0.4713 -0.6617 0.5831
vn 0.0248 -0.3304 0.9435
vn 0.7947 0.1876 -0.5774
vn -0.0248 0.3304 -0.9435
vn 0.0248 -0.3304 -0.9435
vn -0.7947 -0.1876 0.5774
vn 0.6071 -0.7946 0.0000
usemtl Material.017
s off
f 286//1 288//1 287//1 285//1
f 288//2 292//2 291//2 287//2
f 292//3 290//3 289//3 291//3
f 290//4 286//4 285//4 289//4
f 285//5 287//5 291//5 289//5
f 290//6 292//6 288//6 286//6
usemtl Material.016
f 278//1 280//1 279//1 277//1
f 280//2 284//2 283//2 279//2
f 284//3 282//3 281//3 283//3
f 282//4 278//4 277//4 281//4
f 277//5 279//5 283//5 281//5
f 282//6 284//6 280//6 278//6
usemtl Material.015
f 1//7 2//7 4//7 3//7
f 3//8 4//8 6//8 5//8
f 5//9 6//9 8//9 7//9
f 7//10 8//10 10//10 9//10
f 9//11 10//11 12//11 11//11
f 11//12 12//12 14//12 13//12
f 13//13 14//13 16//13 15//13
f 15//14 16//14 18//14 17//14
f 17//15 18//15 20//15 19//15
f 19//16 20//16 22//16 21//16
f 21//17 22//17 24//17 23//17
f 23//18 24//18 26//18 25//18
f 25//19 26//19 28//19 27//19
f 27//20 28//20 30//20 29//20
f 29//21 30//21 32//21 31//21
f 31//22 32//22 34//22 33//22
f 33//23 34//23 36//23 35//23
f 35//24 36//24 38//24 37//24
f 37//25 38//25 40//25 39//25
f 39//26 40//26 42//26 41//26
f 41//27 42//27 44//27 43//27
f 43//28 44//28 46//28 45//28
f 45//29 46//29 48//29 47//29
f 47//30 48//30 50//30 49//30
f 49//31 50//31 52//31 51//31
f 51//32 52//32 54//32 53//32
f 53//33 54//33 56//33 55//33
f 55//34 56//34 58//34 57//34
f 57//35 58//35 60//35 59//35
f 59//36 60//36 62//36 61//36
f 4//4 2//4 64//4 62//4 60//4 58//4 56//4 54//4 52//4 50//4 48//4 46//4 44//4 42//4 40//4 38//4 36//4 34//4 32//4 30//4 28//4 26//4 24//4 22//4 20//4 18//4 16//4 14//4 12//4 10//4 8//4 6//4
f 63//37 64//37 2//37 1//37
f 61//38 62//38 64//38 63//38
f 1//2 3//2 5//2 7//2 9//2 11//2 13//2 15//2 17//2 19//2 21//2 23//2 25//2 27//2 29//2 31//2 33//2 35//2 37//2 39//2 41//2 43//2 45//2 47//2 49//2 51//2 53//2 55//2 57//2 59//2 61//2 63//2
f 65//39 78//39 77//39
f 66//40 78//40 80//40
f 65//41 77//41 82//41
f 65//42 82//42 84//42
f 65//43 84//43 81//43
f 66//44 80//44 87//44
f 67//45 79//45 89//45
f 68//46 83//46 91//46
f 69//47 85//47 93//47
f 70//48 86//48 95//48
f 66//49 87//49 90//49
f 67//50 89//50 92//50
f 68//51 91//51 94//51
f 69//52 93//52 96//52
f 70//53 95//53 88//53
f 71//54 97//54 102//54
f 72//55 98//55 104//55
f 73//56 99//56 105//56
f 74//57 100//57 106//57
f 75//58 101//58 103//58
f 103//59 106//59 76//59
f 103//60 101//60 106//60
f 101//61 74//61 106//61
f 106//62 105//62 76//62
f 106//63 100//63 105//63
f 100//64 73//64 105//64
f 105//65 104//65 76//65
f 105//66 99//66 104//66
f 99//67 72//67 104//67
f 104//68 102//68 76//68
f 104//69 98//69 102//69
f 98//70 71//70 102//70
f 102//71 103//71 76//71
f 102//72 97//72 103//72
f 97//73 75//73 103//73
f 88//74 101//74 75//74
f 88//75 95//75 101//75
f 95//76 74//76 101//76
f 96//77 100//77 74//77
f 96//78 93//78 100//78
f 93//79 73//79 100//79
f 94//80 99//80 73//80
f 94//81 91//81 99//81
f 91//82 72//82 99//82
f 92//83 98//83 72//83
f 92//84 89//84 98//84
f 89//85 71//85 98//85
f 90//86 97//86 71//86
f 90//87 87//87 97//87
f 87//88 75//88 97//88
f 95//89 96//89 74//89
f 95//90 86//90 96//90
f 86//91 69//91 96//91
f 93//92 94//92 73//92
f 93//93 85//93 94//93
f 85//94 68//94 94//94
f 91//95 92//95 72//95
f 91//96 83//96 92//96
f 83//97 67//97 92//97
f 89//98 90//98 71//98
f 89//99 79//99 90//99
f 79//100 66//100 90//100
f 87//101 88//101 75//101
f 87//102 80//102 88//102
f 80//103 70//103 88//103
f 81//104 86//104 70//104
f 81//105 84//105 86//105
f 84//106 69//106 86//106
f 84//107 85//107 69//107
f 84//108 82//108 85//108
f 82//109 68//109 85//109
f 82//110 83//110 68//110
f 82//111 77//111 83//111
f 77//112 67//112 83//112
f 80//113 81//113 70//113
f 80//114 78//114 81//114
f 78//115 65//115 81//115
f 77//116 79//116 67//116
f 77//117 78//117 79//117
f 78//118 66//118 79//118
f 107//7 108//7 110//7 109//7
f 109//8 110//8 112//8 111//8
f 111//9 112//9 114//9 113//9
f 113//10 114//10 116//10 115//10
f 115//11 116//11 118//11 117//11
f 117//12 118//12 120//12 119//12
f 119//13 120//13 122//13 121//13
f 121//14 122//14 124//14 123//14
f 123//15 124//15 126//15 125//15
f 125//16 126//16 128//16 127//16
f 127//17 128//17 130//17 129//17
f 129//18 130//18 132//18 131//18
f 131//19 132//19 134//19 133//19
f 133//20 134//20 136//20 135//20
f 135//21 136//21 138//21 137//21
f 137//22 138//22 140//22 139//22
f 139//23 140//23 142//23 141//23
f 141//24 142//24 144//24 143//24
f 143//25 144//25 146//25 145//25
f 145//26 146//26 148//26 147//26
f 147//27 148//27 150//27 149//27
f 149//28 150//28 152//28 151//28
f 151//29 152//29 154//29 153//29
f 153//30 154//30 156//30 155//30
f 155//31 156//31 158//31 157//31
f 157//32 158//32 160//32 159//32
f 159//33 160//33 162//33 161//33
f 161//34 162//34 164//34 163//34
f 163//35 164//35 166//35 165//35
f 165//36 166//36 168//36 167//36
f 110//4 108//4 170//4 168//4 166//4 164//4 162//4 160//4 158//4 156//4 154//4 152//4 150//4 148//4 146//4 144//4 142//4 140//4 138//4 136//4 134//4 132//4 130//4 128//4 126//4 124//4 122//4 120//4 118//4 116//4 114//4 112//4
f 169//37 170//37 108//37 107//37
f 167//38 168//38 170//38 169//38
f 107//2 109//2 111//2 113//2 115//2 117//2 119//2 121//2 123//2 125//2 127//2 129//2 131//2 133//2 135//2 137//2 139//2 141//2 143//2 145//2 147//2 149//2 151//2 153//2 155//2 157//2 159//2 161//2 163//2 165//2 167//2 169//2
f 171//39 184//39 183//39
f 172//40 184//40 186//40
f 171//41 183//41 188//41
f 171//42 188//42 190//42
f 171//43 190//43 187//43
f 172//44 186//44 193//44
f 173//119 185//119 195//119
f 174//46 189//46 197//46
f 175//47 191//47 199//47
f 176//48 192//48 201//48
f 172//49 193//49 196//49
f 173//50 195//50 198//50
f 174//51 197//51 200//51
f 175//52 199//52 202//52
f 176//53 201//53 194//53
f 177//54 203//54 208//54
f 178//55 204//55 210//55
f 179//56 205//56 211//56
f 180//57 206//57 212//57
f 181//58 207//58 209//58
f 209//59 212//59 182//59
f 209//60 207//60 212//60
f 207//61 180//61 212//61
f 212//62 211//62 182//62
f 212//63 206//63 211//63
f 206//64 179//64 211//64
f 211//65 210//65 182//65
f 211//66 205//66 210//66
f 205//67 178//67 210//67
f 210//68 208//68 182//68
f 210//69 204//69 208//69
f 204//70 177//70 208//70
f 208//71 209//71 182//71
f 208//72 203//72 209//72
f 203//73 181//73 209//73
f 194//74 207//74 181//74
f 194//120 201//120 207//120
f 201//76 180//76 207//76
f 202//121 206//121 180//121
f 202//78 199//78 206//78
f 199//79 179//79 206//79
f 200//80 205//80 179//80
f 200//81 197//81 205//81
f 197//82 178//82 205//82
f 198//83 204//83 178//83
f 198//84 195//84 204//84
f 195//85 177//85 204//85
f 196//86 203//86 177//86
f 196//87 193//87 203//87
f 193//88 181//88 203//88
f 201//89 202//89 180//89
f 201//90 192//90 202//90
f 192//122 175//122 202//122
f 199//92 200//92 179//92
f 199//93 191//93 200//93
f 191//94 174//94 200//94
f 197//95 198//95 178//95
f 197//123 189//123 198//123
f 189//97 173//97 198//97
f 195//98 196//98 177//98
f 195//99 185//99 196//99
f 185//100 172//100 196//100
f 193//101 194//101 181//101
f 193//102 186//102 194//102
f 186//103 176//103 194//103
f 187//104 192//104 176//104
f 187//105 190//105 192//105
f 190//106 175//106 192//106
f 190//107 191//107 175//107
f 190//108 188//108 191//108
f 188//109 174//109 191//109
f 188//110 189//110 174//110
f 188//111 183//111 189//111
f 183//112 173//112 189//112
f 186//113 187//113 176//113
f 186//124 184//124 187//124
f 184//115 171//115 187//115
f 183//116 185//116 173//116
f 183//117 184//117 185//117
f 184//118 172//118 185//118
f 213//7 214//7 216//7 215//7
f 215//8 216//8 218//8 217//8
f 217//9 218//9 220//9 219//9
f 219//10 220//10 222//10 221//10
f 221//11 222//11 224//11 223//11
f 223//12 224//12 226//12 225//12
f 225//13 226//13 228//13 227//13
f 227//14 228//14 230//14 229//14
f 229//15 230//15 232//15 231//15
f 231//16 232//16 234//16 233//16
f 233//17 234//17 236//17 235//17
f 235//18 236//18 238//18 237//18
f 237//19 238//19 240//19 239//19
f 239//20 240//20 242//20 241//20
f 241//21 242//21 244//21 243//21
f 243//22 244//22 246//22 245//22
f 245//23 246//23 248//23 247//23
f 247//24 248//24 250//24 249//24
f 249//25 250//25 252//25 251//25
f 251//26 252//26 254//26 253//26
f 253//27 254//27 256//27 255//27
f 255//28 256//28 258//28 257//28
f 257//29 258//29 260//29 259//29
f 259//30 260//30 262//30 261//30
f 261//31 262//31 264//31 263//31
f 263//32 264//32 266//32 265//32
f 265//33 266//33 268//33 267//33
f 267//34 268//34 270//34 269//34
f 269//35 270//35 272//35 271//35
f 271//36 272//36 274//36 273//36
f 216//4 214//4 276//4 274//4 272//4 270//4 268//4 266//4 264//4 262//4 260//4 258//4 256//4 254//4 252//4 250//4 248//4 246//4 244//4 242//4 240//4 238//4 236//4 234//4 232//4 230//4 228//4 226//4 224//4 222//4 220//4 218//4
f 275//37 276//37 214//37 213//37
f 273//38 274//38 276//38 275//38
f 213//2 215//2 217//2 219//2 221//2 223//2 225//2 227//2 229//2 231//2 233//2 235//2 237//2 239//2 241//2 243//2 245//2 247//2 249//2 251//2 253//2 255//2 257//2 259//2 261//2 263//2 265//2 267//2 269//2 271//2 273//2 275//2
