# Blender v2.79 (sub 0) OBJ File: ''
# www.blender.org
mtllib mesa.mtl
o mesa_Cube.063
v -0.555260 0.000000 -0.937678
v -0.555260 1.000000 -0.937678
v -0.535751 0.000000 -0.935757
v -0.535751 1.000000 -0.935757
v -0.516992 0.000000 -0.930066
v -0.516992 1.000000 -0.930066
v -0.499703 0.000000 -0.920825
v -0.499703 1.000000 -0.920825
v -0.484549 0.000000 -0.908389
v -0.484549 1.000000 -0.908389
v -0.472113 0.000000 -0.893236
v -0.472113 1.000000 -0.893236
v -0.462872 0.000000 -0.875947
v -0.462872 1.000000 -0.875947
v -0.457181 0.000000 -0.857188
v -0.457181 1.000000 -0.857188
v -0.455260 0.000000 -0.837678
v -0.455260 1.000000 -0.837678
v -0.457181 0.000000 -0.818169
v -0.457181 1.000000 -0.818169
v -0.462872 0.000000 -0.799410
v -0.462872 1.000000 -0.799410
v -0.472113 0.000000 -0.782121
v -0.472113 1.000000 -0.782121
v -0.484549 0.000000 -0.766968
v -0.484549 1.000000 -0.766968
v -0.499703 0.000000 -0.754532
v -0.499703 1.000000 -0.754532
v -0.516992 0.000000 -0.745290
v -0.516992 1.000000 -0.745290
v -0.535751 0.000000 -0.739600
v -0.535751 1.000000 -0.739600
v -0.555260 0.000000 -0.737678
v -0.555260 1.000000 -0.737678
v -0.574769 0.000000 -0.739600
v -0.574769 1.000000 -0.739600
v -0.593528 0.000000 -0.745291
v -0.593528 1.000000 -0.745291
v -0.610817 0.000000 -0.754532
v -0.610817 1.000000 -0.754532
v -0.625971 0.000000 -0.766968
v -0.625971 1.000000 -0.766968
v -0.638407 0.000000 -0.782121
v -0.638407 1.000000 -0.782121
v -0.647648 0.000000 -0.799410
v -0.647648 1.000000 -0.799410
v -0.653339 0.000000 -0.818170
v -0.653339 1.000000 -0.818170
v -0.655260 0.000000 -0.837679
v -0.655260 1.000000 -0.837679
v -0.653339 0.000000 -0.857188
v -0.653339 1.000000 -0.857188
v -0.647648 0.000000 -0.875947
v -0.647648 1.000000 -0.875947
v -0.638407 0.000000 -0.893236
v -0.638407 1.000000 -0.893236
v -0.625971 0.000000 -0.908389
v -0.625971 1.000000 -0.908389
v -0.610817 0.000000 -0.920825
v -0.610817 1.000000 -0.920825
v -0.593528 0.000000 -0.930066
v -0.593528 1.000000 -0.930066
v -0.574769 0.000000 -0.935757
v -0.574769 1.000000 -0.935757
v -0.555255 0.000000 0.724315
v -0.555255 1.000000 0.724315
v -0.535746 0.000000 0.726236
v -0.535746 1.000000 0.726236
v -0.516987 0.000000 0.731927
v -0.516987 1.000000 0.731927
v -0.499698 0.000000 0.741168
v -0.499698 1.000000 0.741168
v -0.484545 0.000000 0.753604
v -0.484545 1.000000 0.753604
v -0.472108 0.000000 0.768758
v -0.472108 1.000000 0.768758
v -0.462867 0.000000 0.786047
v -0.462867 1.000000 0.786047
v -0.457177 0.000000 0.804806
v -0.457177 1.000000 0.804806
v -0.455255 0.000000 0.824315
v -0.455255 1.000000 0.824315
v -0.457177 0.000000 0.843824
v -0.457177 1.000000 0.843824
v -0.462867 0.000000 0.862583
v -0.462867 1.000000 0.862583
v -0.472108 0.000000 0.879872
v -0.472108 1.000000 0.879872
v -0.484545 0.000000 0.895026
v -0.484545 1.000000 0.895026
v -0.499698 0.000000 0.907462
v -0.499698 1.000000 0.907462
v -0.516987 0.000000 0.916703
v -0.516987 1.000000 0.916703
v -0.535746 0.000000 0.922393
v -0.535746 1.000000 0.922393
v -0.555255 0.000000 0.924315
v -0.555255 1.000000 0.924315
v -0.574764 0.000000 0.922393
v -0.574764 1.000000 0.922393
v -0.593524 0.000000 0.916703
v -0.593524 1.000000 0.916703
v -0.610812 0.000000 0.907462
v -0.610812 1.000000 0.907462
v -0.625966 0.000000 0.895026
v -0.625966 1.000000 0.895026
v -0.638402 0.000000 0.879872
v -0.638402 1.000000 0.879872
v -0.647643 0.000000 0.862583
v -0.647643 1.000000 0.862583
v -0.653334 0.000000 0.843824
v -0.653334 1.000000 0.843824
v -0.655255 0.000000 0.824315
v -0.655255 1.000000 0.824315
v -0.653334 0.000000 0.804806
v -0.653334 1.000000 0.804806
v -0.647643 0.000000 0.786046
v -0.647643 1.000000 0.786046
v -0.638402 0.000000 0.768758
v -0.638402 1.000000 0.768758
v -0.625966 0.000000 0.753604
v -0.625966 1.000000 0.753604
v -0.610812 0.000000 0.741168
v -0.610812 1.000000 0.741168
v -0.593524 0.000000 0.731927
v -0.593524 1.000000 0.731927
v -0.574764 0.000000 0.726236
v -0.574764 1.000000 0.726236
v -1.500000 0.000000 0.900000
v -1.500000 1.000000 0.900000
v -1.500000 0.000000 -0.900000
v -1.500000 1.000000 -0.900000
v -0.500000 0.000000 0.900000
v -0.500000 1.000000 0.900000
v -0.500000 0.000000 -0.900000
v -0.500000 1.000000 -0.900000
vn 0.0980 0.0000 -0.9952
vn 0.2903 0.0000 -0.9569
vn 0.4714 0.0000 -0.8819
vn 0.6344 0.0000 -0.7730
vn 0.7730 0.0000 -0.6344
vn 0.8819 0.0000 -0.4714
vn 0.9569 0.0000 -0.2903
vn 0.9952 0.0000 -0.0980
vn 0.9952 0.0000 0.0980
vn 0.9569 0.0000 0.2903
vn 0.8819 0.0000 0.4714
vn 0.7730 0.0000 0.6344
vn 0.6344 0.0000 0.7730
vn 0.4714 0.0000 0.8819
vn 0.2903 0.0000 0.9569
vn 0.0980 0.0000 0.9952
vn -0.0980 0.0000 0.9952
vn -0.2903 0.0000 0.9569
vn -0.4714 0.0000 0.8819
vn -0.6344 0.0000 0.7730
vn -0.7730 0.0000 0.6344
vn -0.8819 0.0000 0.4714
vn -0.9569 0.0000 0.2903
vn -0.9952 0.0000 0.0980
vn -0.9952 0.0000 -0.0980
vn -0.9569 0.0000 -0.2903
vn -0.8819 0.0000 -0.4714
vn -0.7730 0.0000 -0.6344
vn -0.6344 0.0000 -0.7730
vn -0.4714 0.0000 -0.8819
vn 0.0000 1.0000 0.0000
vn -0.0980 0.0000 -0.9952
vn -0.2903 0.0000 -0.9569
vn 0.0000 -1.0000 0.0000
vn -1.0000 0.0000 0.0000
vn 0.0000 0.0000 -1.0000
vn 1.0000 0.0000 0.0000
vn 0.0000 0.0000 1.0000
usemtl Material.114
s off
f 1//1 2//1 4//1 3//1
f 3//2 4//2 6//2 5//2
f 5//3 6//3 8//3 7//3
f 7//4 8//4 10//4 9//4
f 9//5 10//5 12//5 11//5
f 11//6 12//6 14//6 13//6
f 13//7 14//7 16//7 15//7
f 15//8 16//8 18//8 17//8
f 17//9 18//9 20//9 19//9
f 19//10 20//10 22//10 21//10
f 21//11 22//11 24//11 23//11
f 23//12 24//12 26//12 25//12
f 25//13 26//13 28//13 27//13
f 27//14 28//14 30//14 29//14
f 29//15 30//15 32//15 31//15
f 31//16 32//16 34//16 33//16
f 33//17 34//17 36//17 35//17
f 35//18 36//18 38//18 37//18
f 37//19 38//19 40//19 39//19
f 39//20 40//20 42//20 41//20
f 41//21 42//21 44//21 43//21
f 43//22 44//22 46//22 45//22
f 45//23 46//23 48//23 47//23
f 47//24 48//24 50//24 49//24
f 49//25 50//25 52//25 51//25
f 51//26 52//26 54//26 53//26
f 53//27 54//27 56//27 55//27
f 55//28 56//28 58//28 57//28
f 57//29 58//29 60//29 59//29
f 59//30 60//30 62//30 61//30
f 4//31 2//31 64//31 62//31 60//31 58//31 56//31 54//31 52//31 50//31 48//31 46//31 44//31 42//31 40//31 38//31 36//31 34//31 32//31 30//31 28//31 26//31 24//31 22//31 20//31 18//31 16//31 14//31 12//31 10//31 8//31 6//31
f 63//32 64//32 2//32 1//32
f 61//33 62//33 64//33 63//33
f 1//34 3//34 5//34 7//34 9//34 11//34 13//34 15//34 17//34 19//34 21//34 23//34 25//34 27//34 29//34 31//34 33//34 35//34 37//34 39//34 41//34 43//34 45//34 47//34 49//34 51//34 53//34 55//34 57//34 59//34 61//34 63//34
f 65//1 66//1 68//1 67//1
f 67//2 68//2 70//2 69//2
f 69//3 70//3 72//3 71//3
f 71//4 72//4 74//4 73//4
f 73//5 74//5 76//5 75//5
f 75//6 76//6 78//6 77//6
f 77//7 78//7 80//7 79//7
f 79//8 80//8 82//8 81//8
f 81//9 82//9 84//9 83//9
f 83//10 84//10 86//10 85//10
f 85//11 86//11 88//11 87//11
f 87//12 88//12 90//12 89//12
f 89//13 90//13 92//13 91//13
f 91//14 92//14 94//14 93//14
f 93//15 94//15 96//15 95//15
f 95//16 96//16 98//16 97//16
f 97//17 98//17 100//17 99//17
f 99//18 100//18 102//18 101//18
f 101//19 102//19 104//19 103//19
f 103//20 104//20 106//20 105//20
f 105//21 106//21 108//21 107//21
f 107//22 108//22 110//22 109//22
f 109//23 110//23 112//23 111//23
f 111//24 112//24 114//24 113//24
f 113//25 114//25 116//25 115//25
f 115//26 116//26 118//26 117//26
f 117//27 118//27 120//27 119//27
f 119//28 120//28 122//28 121//28
f 121//29 122//29 124//29 123//29
f 123//30 124//30 126//30 125//30
f 68//31 66//31 128//31 126//31 124//31 122//31 120//31 118//31 116//31 114//31 112//31 110//31 108//31 106//31 104//31 102//31 100//31 98//31 96//31 94//31 92//31 90//31 88//31 86//31 84//31 82//31 80//31 78//31 76//31 74//31 72//31 70//31
f 127//32 128//32 66//32 65//32
f 125//33 126//33 128//33 127//33
f 65//34 67//34 69//34 71//34 73//34 75//34 77//34 79//34 81//34 83//34 85//34 87//34 89//34 91//34 93//34 95//34 97//34 99//34 101//34 103//34 105//34 107//34 109//34 111//34 113//34 115//34 117//34 119//34 121//34 123//34 125//34 127//34
f 130//35 132//35 131//35 129//35
f 132//36 136//36 135//36 131//36
f 136//37 134//37 133//37 135//37
f 134//38 130//38 129//38 133//38
f 129//34 131//34 135//34 133//34
f 134//31 136//31 132//31 130//31
