# Blender v2.79 (sub 0) OBJ File: ''
# www.blender.org
mtllib mobile.mtl
o mobile_Cube.021
v -6.054891 0.143678 -0.049824
v -6.108916 0.185257 0.023337
v -6.054441 0.152503 -0.054507
v -6.108466 0.194081 0.018654
v -6.012876 0.154684 -0.025053
v -6.066901 0.196262 0.048108
v -6.012426 0.163508 -0.029736
v -6.066451 0.205087 0.043425
vn -0.8403 -0.2201 -0.4954
vn 0.0450 0.8824 -0.4683
vn 0.8403 0.2201 0.4954
vn -0.0450 -0.8824 0.4683
vn 0.5403 -0.4158 -0.7316
vn -0.5403 0.4158 0.7316
usemtl Material.048
s off
f 2//1 4//1 3//1 1//1
f 4//2 8//2 7//2 3//2
f 8//3 6//3 5//3 7//3
f 6//4 2//4 1//4 5//4
f 1//5 3//5 7//5 5//5
f 6//6 8//6 4//6 2//6
