# Blender v2.79 (sub 0) OBJ File: ''
# www.blender.org
mtllib pala.mtl
o pala_Cube.075
v 1.867641 0.357592 5.799669
v 1.862843 0.385382 5.844217
v 1.823696 0.385382 5.809084
v 1.845281 0.385382 5.760940
v 1.897767 0.385382 5.766319
v 1.908620 0.385382 5.817788
v 1.837516 0.430348 5.833020
v 1.826662 0.430348 5.781551
v 1.872440 0.430348 5.755121
v 1.911587 0.430348 5.790255
v 1.890002 0.430348 5.838399
v 1.867641 0.458138 5.799669
v 1.841811 0.365100 5.805203
v 1.864821 0.365100 5.825854
v 1.838991 0.381435 5.831388
v 1.888908 0.381435 5.836504
v 1.891728 0.365100 5.810319
v 1.854498 0.365100 5.776905
v 1.828668 0.381435 5.782438
v 1.885349 0.365100 5.780066
v 1.872205 0.381435 5.757302
v 1.909436 0.381435 5.790716
v 1.877964 0.407865 5.848619
v 1.904872 0.407865 5.833084
v 1.824104 0.407865 5.824806
v 1.847113 0.407865 5.845457
v 1.830411 0.407865 5.766255
v 1.817724 0.407865 5.794553
v 1.888170 0.407865 5.753881
v 1.857319 0.407865 5.750720
v 1.917559 0.407865 5.804785
v 1.911179 0.407865 5.774533
v 1.863077 0.434295 5.842037
v 1.825847 0.434296 5.808623
v 1.846375 0.434295 5.762836
v 1.896292 0.434296 5.767951
v 1.906615 0.434295 5.816901
v 1.849934 0.450630 5.819272
v 1.880785 0.450630 5.822434
v 1.843555 0.450630 5.789020
v 1.870462 0.450630 5.773485
v 1.893471 0.450630 5.794136
v 2.002266 0.272546 6.131801
v 2.002266 0.307738 6.131801
v 2.006619 0.272546 6.129288
v 2.006619 0.307738 6.129288
v 2.052266 0.272546 6.218404
v 2.052266 0.307738 6.218404
v 2.056619 0.272546 6.215890
v 2.056619 0.307738 6.215890
v 2.087869 0.272177 6.082484
v 2.087869 0.307368 6.082484
v 2.092222 0.272177 6.079970
v 2.092222 0.307368 6.079970
v 2.137869 0.272177 6.169086
v 2.137869 0.307368 6.169086
v 2.142222 0.272177 6.166573
v 2.142222 0.307368 6.166573
v 1.836995 0.402411 5.794374
v 1.840250 0.421424 5.800012
v 1.880533 0.402411 5.769237
v 1.883788 0.421424 5.774876
v 2.026098 0.271472 6.121911
v 2.029354 0.290486 6.127550
v 2.069636 0.271472 6.096774
v 2.072892 0.290486 6.102413
v 2.002315 0.271347 6.132193
v 2.002315 0.291456 6.132193
v 2.089391 0.271347 6.081920
v 2.089391 0.291456 6.081920
v 2.052315 0.271347 6.218796
v 2.052315 0.291456 6.218796
v 2.139391 0.271347 6.168523
v 2.139391 0.291456 6.168523
vn -0.2214 -0.9435 0.2467
vn 0.1196 -0.6599 0.7418
vn -0.3033 -0.9432 -0.1360
vn 0.0339 -0.9432 -0.3306
vn 0.3243 -0.9435 -0.0684
vn 0.2219 -0.3289 0.9179
vn -0.8047 -0.3304 0.4933
vn -0.7170 -0.3290 -0.6145
vn 0.3590 -0.3298 -0.8731
vn 0.9409 -0.3299 0.0764
vn -0.1012 -0.1252 0.9870
vn -0.9707 -0.1256 0.2047
vn -0.4961 -0.1250 -0.8592
vn 0.6626 -0.1256 -0.7383
vn 0.9053 -0.1252 0.4059
vn -0.3383 0.6611 0.6697
vn -0.7410 0.6609 -0.1187
vn -0.1196 0.6599 -0.7418
vn 0.6678 0.6617 -0.3408
vn 0.5311 0.6598 0.5316
vn 0.3033 0.9432 0.1360
vn 0.5552 0.7936 0.2489
vn 0.7491 0.6611 0.0418
vn 0.2214 0.9435 -0.2467
vn 0.4056 0.7945 -0.4519
vn 0.2677 0.6609 -0.7011
vn -0.1665 0.9430 -0.2883
vn -0.3046 0.7931 -0.5275
vn -0.5826 0.6599 -0.4744
vn -0.3243 0.9435 0.0684
vn -0.5942 0.7945 0.1253
vn -0.6291 0.6617 0.4079
vn -0.0339 0.9432 0.3306
vn -0.0620 0.7936 0.6053
vn 0.1948 0.6598 0.7258
vn 0.7171 0.3289 0.6145
vn 0.8964 0.1870 0.4019
vn 0.9357 0.3298 0.1257
vn 0.8047 0.3304 -0.4933
vn 0.6561 0.1875 -0.7310
vn 0.4043 0.3299 -0.8531
vn -0.2219 0.3289 -0.9179
vn -0.4912 0.1866 -0.8508
vn -0.6840 0.3289 -0.6511
vn -0.9409 0.3299 -0.0764
vn -0.9611 0.1875 0.2027
vn -0.8295 0.3304 0.4502
vn -0.3590 0.3298 0.8732
vn -0.1002 0.1869 0.9772
vn 0.1737 0.3290 0.9282
vn 0.9707 0.1256 -0.2047
vn 0.9611 -0.1875 -0.2027
vn 0.8296 -0.3304 -0.4502
vn 0.1011 0.1252 -0.9870
vn 0.1001 -0.1870 -0.9773
vn -0.1736 -0.3290 -0.9282
vn -0.9053 0.1252 -0.4059
vn -0.8964 -0.1869 -0.4019
vn -0.9356 -0.3298 -0.1257
vn -0.6627 0.1256 0.7383
vn -0.6561 -0.1875 0.7310
vn -0.4042 -0.3299 0.8531
vn 0.4961 0.1250 0.8592
vn 0.4912 -0.1866 0.8508
vn 0.6840 -0.3289 0.6511
vn 0.7410 -0.6609 0.1187
vn 0.5942 -0.7945 -0.1253
vn 0.6291 -0.6617 -0.4079
vn 0.3383 -0.6611 -0.6697
vn 0.0621 -0.7936 -0.6053
vn -0.1948 -0.6598 -0.7258
vn -0.5312 -0.6598 -0.5316
vn -0.5552 -0.7936 -0.2489
vn -0.7491 -0.6611 -0.0418
vn 0.5826 -0.6599 0.4744
vn 0.3046 -0.7931 0.5275
vn 0.1665 -0.9430 0.2883
vn -0.6678 -0.6617 0.3408
vn -0.4056 -0.7945 0.4519
vn -0.2677 -0.6609 0.7011
vn -0.5000 0.0000 -0.8660
vn 0.8660 0.0000 -0.5000
vn 0.5000 0.0000 0.8660
vn -0.8660 0.0000 0.5000
vn 0.0000 -1.0000 -0.0000
vn 0.0000 1.0000 -0.0000
vn -0.4730 0.3240 -0.8193
vn 0.4730 -0.3240 0.8193
vn -0.1636 -0.9450 -0.2833
vn 0.1636 0.9450 0.2833
usemtl Material.132
s off
f 1//1 14//1 13//1
f 2//2 14//2 16//2
f 1//3 13//3 18//3
f 1//4 18//4 20//4
f 1//5 20//5 17//5
f 2//6 16//6 23//6
f 3//7 15//7 25//7
f 4//8 19//8 27//8
f 5//9 21//9 29//9
f 6//10 22//10 31//10
f 2//11 23//11 26//11
f 3//12 25//12 28//12
f 4//13 27//13 30//13
f 5//14 29//14 32//14
f 6//15 31//15 24//15
f 7//16 33//16 38//16
f 8//17 34//17 40//17
f 9//18 35//18 41//18
f 10//19 36//19 42//19
f 11//20 37//20 39//20
f 39//21 42//21 12//21
f 39//22 37//22 42//22
f 37//23 10//23 42//23
f 42//24 41//24 12//24
f 42//25 36//25 41//25
f 36//26 9//26 41//26
f 41//27 40//27 12//27
f 41//28 35//28 40//28
f 35//29 8//29 40//29
f 40//30 38//30 12//30
f 40//31 34//31 38//31
f 34//32 7//32 38//32
f 38//33 39//33 12//33
f 38//34 33//34 39//34
f 33//35 11//35 39//35
f 24//36 37//36 11//36
f 24//37 31//37 37//37
f 31//38 10//38 37//38
f 32//39 36//39 10//39
f 32//40 29//40 36//40
f 29//41 9//41 36//41
f 30//42 35//42 9//42
f 30//43 27//43 35//43
f 27//44 8//44 35//44
f 28//45 34//45 8//45
f 28//46 25//46 34//46
f 25//47 7//47 34//47
f 26//48 33//48 7//48
f 26//49 23//49 33//49
f 23//50 11//50 33//50
f 31//51 32//51 10//51
f 31//52 22//52 32//52
f 22//53 5//53 32//53
f 29//54 30//54 9//54
f 29//55 21//55 30//55
f 21//56 4//56 30//56
f 27//57 28//57 8//57
f 27//58 19//58 28//58
f 19//59 3//59 28//59
f 25//60 26//60 7//60
f 25//61 15//61 26//61
f 15//62 2//62 26//62
f 23//63 24//63 11//63
f 23//64 16//64 24//64
f 16//65 6//65 24//65
f 17//66 22//66 6//66
f 17//67 20//67 22//67
f 20//68 5//68 22//68
f 20//69 21//69 5//69
f 20//70 18//70 21//70
f 18//71 4//71 21//71
f 18//72 19//72 4//72
f 18//73 13//73 19//73
f 13//74 3//74 19//74
f 16//75 17//75 6//75
f 16//76 14//76 17//76
f 14//77 1//77 17//77
f 13//78 15//78 3//78
f 13//79 14//79 15//79
f 14//80 2//80 15//80
f 44//81 46//81 45//81 43//81
f 46//82 50//82 49//82 45//82
f 50//83 48//83 47//83 49//83
f 48//84 44//84 43//84 47//84
f 43//85 45//85 49//85 47//85
f 48//86 50//86 46//86 44//86
f 52//81 54//81 53//81 51//81
f 54//82 58//82 57//82 53//82
f 58//83 56//83 55//83 57//83
f 56//84 52//84 51//84 55//84
f 51//85 53//85 57//85 55//85
f 56//86 58//86 54//86 52//86
f 60//87 62//87 61//87 59//87
f 62//82 66//82 65//82 61//82
f 66//88 64//88 63//88 65//88
f 64//84 60//84 59//84 63//84
f 59//89 61//89 65//89 63//89
f 64//90 66//90 62//90 60//90
f 68//81 70//81 69//81 67//81
f 70//82 74//82 73//82 69//82
f 74//83 72//83 71//83 73//83
f 72//84 68//84 67//84 71//84
f 67//85 69//85 73//85 71//85
f 72//86 74//86 70//86 68//86
