# Blender v2.79 (sub 0) OBJ File: ''
# www.blender.org
mtllib papelera.mtl
o papelera_Cube.035
v 1.954053 0.004268 -2.409255
v 2.278255 0.004268 -2.409255
v 1.954053 0.064268 -2.409255
v 2.278255 0.064268 -2.409255
v 1.954053 0.004268 -2.733457
v 2.278255 0.004268 -2.733457
v 1.954053 0.064268 -2.733457
v 2.278255 0.064268 -2.733457
v 2.273586 0.000000 -2.415683
v 2.273586 0.600000 -2.415683
v 2.241166 0.000000 -2.415683
v 2.241166 0.600000 -2.415683
v 2.273586 0.000000 -2.739885
v 2.273586 0.600000 -2.739885
v 2.241166 0.000000 -2.739885
v 2.241166 0.600000 -2.739885
v 1.983175 0.000000 -2.411029
v 1.983175 0.600000 -2.411029
v 1.950755 0.000000 -2.411029
v 1.950755 0.600000 -2.411029
v 1.983175 0.000000 -2.735231
v 1.983175 0.600000 -2.735231
v 1.950755 0.000000 -2.735231
v 1.950755 0.600000 -2.735231
v 1.951125 0.000000 -2.720700
v 1.951125 0.600000 -2.720700
v 1.951125 0.000000 -2.753120
v 1.951125 0.600000 -2.753120
v 2.275327 0.000000 -2.720700
v 2.275327 0.600000 -2.720700
v 2.275327 0.000000 -2.753120
v 2.275327 0.600000 -2.753120
v 1.949389 0.000000 -2.406590
v 1.949389 0.600000 -2.406590
v 1.949389 0.000000 -2.439011
v 1.949389 0.600000 -2.439011
v 2.273591 0.000000 -2.406590
v 2.273591 0.600000 -2.406590
v 2.273591 0.000000 -2.439011
v 2.273591 0.600000 -2.439011
vn 0.0000 0.0000 1.0000
vn 0.0000 1.0000 0.0000
vn 0.0000 0.0000 -1.0000
vn 0.0000 -1.0000 0.0000
vn -1.0000 0.0000 0.0000
vn 1.0000 0.0000 0.0000
usemtl None
s off
f 2//1 4//1 3//1 1//1
f 4//2 8//2 7//2 3//2
f 8//3 6//3 5//3 7//3
f 6//4 2//4 1//4 5//4
f 1//5 3//5 7//5 5//5
f 6//6 8//6 4//6 2//6
f 10//1 12//1 11//1 9//1
f 12//5 16//5 15//5 11//5
f 16//3 14//3 13//3 15//3
f 14//6 10//6 9//6 13//6
f 9//4 11//4 15//4 13//4
f 14//2 16//2 12//2 10//2
f 18//1 20//1 19//1 17//1
f 20//5 24//5 23//5 19//5
f 24//3 22//3 21//3 23//3
f 22//6 18//6 17//6 21//6
f 17//4 19//4 23//4 21//4
f 22//2 24//2 20//2 18//2
f 26//5 28//5 27//5 25//5
f 28//3 32//3 31//3 27//3
f 32//6 30//6 29//6 31//6
f 30//1 26//1 25//1 29//1
f 25//4 27//4 31//4 29//4
f 30//2 32//2 28//2 26//2
f 34//5 36//5 35//5 33//5
f 36//3 40//3 39//3 35//3
f 40//6 38//6 37//6 39//6
f 38//1 34//1 33//1 37//1
f 33//4 35//4 39//4 37//4
f 38//2 40//2 36//2 34//2
