# Blender v2.79 (sub 0) OBJ File: ''
# www.blender.org
mtllib pisa.mtl
o pisa_Cube.049
v -1.802753 1.254169 0.566303
v -1.802753 1.306474 0.566303
v -1.802753 1.254169 0.416860
v -1.802753 1.306474 0.416860
v -1.653310 1.254169 0.566303
v -1.653310 1.306474 0.566303
v -1.653310 1.254169 0.416860
v -1.653310 1.306474 0.416860
v -1.771242 1.285554 0.511036
v -1.771242 1.496200 0.434368
v -1.770525 1.283061 0.504187
v -1.770525 1.493707 0.427519
v -1.768399 1.280664 0.497601
v -1.768399 1.491310 0.420933
v -1.764946 1.278455 0.491532
v -1.764946 1.489100 0.414863
v -1.760300 1.276518 0.486212
v -1.760300 1.487164 0.409543
v -1.754638 1.274929 0.481846
v -1.754638 1.485575 0.405177
v -1.748179 1.273748 0.478601
v -1.748179 1.484394 0.401933
v -1.741170 1.273021 0.476603
v -1.741170 1.483667 0.399935
v -1.733882 1.272776 0.475929
v -1.733882 1.483421 0.399260
v -1.726593 1.273021 0.476603
v -1.726593 1.483667 0.399935
v -1.719584 1.273748 0.478601
v -1.719584 1.484394 0.401933
v -1.713125 1.274929 0.481846
v -1.713125 1.485575 0.405177
v -1.707464 1.276518 0.486212
v -1.707464 1.487164 0.409543
v -1.702817 1.278455 0.491532
v -1.702817 1.489100 0.414863
v -1.699365 1.280664 0.497601
v -1.699365 1.491310 0.420933
v -1.697239 1.283061 0.504187
v -1.697239 1.493707 0.427519
v -1.696521 1.285554 0.511036
v -1.696521 1.496200 0.434368
v -1.697239 1.288047 0.517886
v -1.697239 1.498693 0.441217
v -1.699365 1.290444 0.524472
v -1.699365 1.501090 0.447803
v -1.702817 1.292653 0.530541
v -1.702817 1.503299 0.453872
v -1.707464 1.294589 0.535861
v -1.707464 1.505235 0.459193
v -1.713125 1.296179 0.540227
v -1.713125 1.506824 0.463559
v -1.719584 1.297359 0.543472
v -1.719584 1.508005 0.466803
v -1.726593 1.298087 0.545470
v -1.726593 1.508732 0.468801
v -1.733882 1.298332 0.546144
v -1.733882 1.508978 0.469475
v -1.741171 1.298087 0.545470
v -1.741171 1.508732 0.468801
v -1.748179 1.297359 0.543472
v -1.748179 1.508005 0.466803
v -1.754638 1.296179 0.540227
v -1.754638 1.506824 0.463559
v -1.760300 1.294589 0.535861
v -1.760300 1.505235 0.459193
v -1.764946 1.292653 0.530541
v -1.764946 1.503299 0.453872
v -1.768399 1.290444 0.524472
v -1.768399 1.501090 0.447803
v -1.770525 1.288047 0.517886
v -1.770525 1.498693 0.441217
vn -1.0000 0.0000 0.0000
vn 0.0000 0.0000 -1.0000
vn 1.0000 0.0000 0.0000
vn 0.0000 0.0000 1.0000
vn 0.0000 -1.0000 0.0000
vn 0.0000 1.0000 0.0000
vn -0.9952 -0.0335 -0.0921
vn -0.9569 -0.0993 -0.2728
vn -0.8819 -0.1612 -0.4430
vn -0.7730 -0.2170 -0.5961
vn -0.6344 -0.2644 -0.7264
vn -0.4714 -0.3016 -0.8287
vn -0.2903 -0.3273 -0.8992
vn -0.0980 -0.3404 -0.9352
vn 0.0980 -0.3404 -0.9352
vn 0.2903 -0.3273 -0.8992
vn 0.4714 -0.3016 -0.8287
vn 0.6344 -0.2644 -0.7264
vn 0.7730 -0.2170 -0.5961
vn 0.8819 -0.1612 -0.4430
vn 0.9569 -0.0993 -0.2728
vn 0.9952 -0.0335 -0.0921
vn 0.9952 0.0335 0.0921
vn 0.9569 0.0993 0.2728
vn 0.8819 0.1612 0.4430
vn 0.7730 0.2170 0.5961
vn 0.6344 0.2644 0.7264
vn 0.4714 0.3016 0.8287
vn 0.2903 0.3273 0.8992
vn 0.0980 0.3404 0.9352
vn -0.0980 0.3404 0.9352
vn -0.2903 0.3273 0.8992
vn -0.4714 0.3016 0.8287
vn -0.6344 0.2644 0.7264
vn -0.7730 0.2170 0.5961
vn -0.8819 0.1612 0.4430
vn 0.0000 0.9397 -0.3420
vn -0.9952 0.0335 0.0921
vn -0.9569 0.0993 0.2728
vn -0.0000 -0.9397 0.3420
usemtl Material.084
s off
f 2//1 4//1 3//1 1//1
f 4//2 8//2 7//2 3//2
f 8//3 6//3 5//3 7//3
f 6//4 2//4 1//4 5//4
f 1//5 3//5 7//5 5//5
f 6//6 8//6 4//6 2//6
f 9//7 10//7 12//7 11//7
f 11//8 12//8 14//8 13//8
f 13//9 14//9 16//9 15//9
f 15//10 16//10 18//10 17//10
f 17//11 18//11 20//11 19//11
f 19//12 20//12 22//12 21//12
f 21//13 22//13 24//13 23//13
f 23//14 24//14 26//14 25//14
f 25//15 26//15 28//15 27//15
f 27//16 28//16 30//16 29//16
f 29//17 30//17 32//17 31//17
f 31//18 32//18 34//18 33//18
f 33//19 34//19 36//19 35//19
f 35//20 36//20 38//20 37//20
f 37//21 38//21 40//21 39//21
f 39//22 40//22 42//22 41//22
f 41//23 42//23 44//23 43//23
f 43//24 44//24 46//24 45//24
f 45//25 46//25 48//25 47//25
f 47//26 48//26 50//26 49//26
f 49//27 50//27 52//27 51//27
f 51//28 52//28 54//28 53//28
f 53//29 54//29 56//29 55//29
f 55//30 56//30 58//30 57//30
f 57//31 58//31 60//31 59//31
f 59//32 60//32 62//32 61//32
f 61//33 62//33 64//33 63//33
f 63//34 64//34 66//34 65//34
f 65//35 66//35 68//35 67//35
f 67//36 68//36 70//36 69//36
f 12//37 10//37 72//37 70//37 68//37 66//37 64//37 62//37 60//37 58//37 56//37 54//37 52//37 50//37 48//37 46//37 44//37 42//37 40//37 38//37 36//37 34//37 32//37 30//37 28//37 26//37 24//37 22//37 20//37 18//37 16//37 14//37
f 71//38 72//38 10//38 9//38
f 69//39 70//39 72//39 71//39
f 9//40 11//40 13//40 15//40 17//40 19//40 21//40 23//40 25//40 27//40 29//40 31//40 33//40 35//40 37//40 39//40 41//40 43//40 45//40 47//40 49//40 51//40 53//40 55//40 57//40 59//40 61//40 63//40 65//40 67//40 69//40 71//40
