# Blender v2.79 (sub 0) OBJ File: ''
# www.blender.org
mtllib respaldo.mtl
o respaldo_Cube.040
v 2.270162 0.000000 -3.116512
v 2.270162 1.400000 -3.116512
v 2.270162 0.000000 -7.316512
v 2.270162 1.400000 -7.316512
v 2.310162 0.000000 -3.116512
v 2.310162 1.400000 -3.116512
v 2.310162 0.000000 -7.316512
v 2.310162 1.400000 -7.316512
v -2.450816 0.000000 -7.268521
v -2.450816 1.400000 -7.268521
v -2.450816 0.000000 -7.308521
v -2.450816 1.400000 -7.308521
v 2.429184 0.000000 -7.268521
v 2.429184 1.400000 -7.268521
v 2.429184 0.000000 -7.308521
v 2.429184 1.400000 -7.308521
v -2.269903 0.000000 -6.061277
v -2.269903 1.400000 -6.061277
v -2.309903 0.000000 -6.061277
v -2.309903 1.400000 -6.061277
v -2.269903 0.000000 -7.461277
v -2.269903 1.400000 -7.461277
v -2.309903 0.000000 -7.461277
v -2.309903 1.400000 -7.461277
vn -1.0000 0.0000 0.0000
vn 0.0000 0.0000 -1.0000
vn 1.0000 0.0000 0.0000
vn 0.0000 0.0000 1.0000
vn 0.0000 -1.0000 0.0000
vn 0.0000 1.0000 0.0000
usemtl None
s off
f 2//1 4//1 3//1 1//1
f 4//2 8//2 7//2 3//2
f 8//3 6//3 5//3 7//3
f 6//4 2//4 1//4 5//4
f 1//5 3//5 7//5 5//5
f 6//6 8//6 4//6 2//6
f 10//1 12//1 11//1 9//1
f 12//2 16//2 15//2 11//2
f 16//3 14//3 13//3 15//3
f 14//4 10//4 9//4 13//4
f 9//5 11//5 15//5 13//5
f 14//6 16//6 12//6 10//6
f 18//4 20//4 19//4 17//4
f 20//1 24//1 23//1 19//1
f 24//2 22//2 21//2 23//2
f 22//3 18//3 17//3 21//3
f 17//5 19//5 23//5 21//5
f 22//6 24//6 20//6 18//6
