# Blender v2.79 (sub 0) OBJ File: ''
# www.blender.org
mtllib toallero.mtl
o toallero_Cylinder.009
v 1.880150 1.204625 -1.987804
v 1.880150 1.204625 -1.187804
v 1.879670 1.199748 -1.987804
v 1.879670 1.199748 -1.187804
v 1.878247 1.195058 -1.987804
v 1.878247 1.195058 -1.187804
v 1.875937 1.190736 -1.987804
v 1.875937 1.190736 -1.187804
v 1.872828 1.186948 -1.987804
v 1.872828 1.186948 -1.187804
v 1.869040 1.183839 -1.987804
v 1.869040 1.183839 -1.187804
v 1.864717 1.181528 -1.987804
v 1.864717 1.181528 -1.187804
v 1.860028 1.180106 -1.987804
v 1.860028 1.180106 -1.187804
v 1.855150 1.179625 -1.987804
v 1.855150 1.179625 -1.187804
v 1.850273 1.180106 -1.987804
v 1.850273 1.180106 -1.187804
v 1.845583 1.181528 -1.987804
v 1.845583 1.181528 -1.187804
v 1.841261 1.183839 -1.987804
v 1.841261 1.183839 -1.187804
v 1.837473 1.186948 -1.987804
v 1.837473 1.186948 -1.187804
v 1.834364 1.190736 -1.987804
v 1.834364 1.190736 -1.187804
v 1.832053 1.195058 -1.987804
v 1.832053 1.195058 -1.187804
v 1.830631 1.199748 -1.987804
v 1.830631 1.199748 -1.187804
v 1.830150 1.204625 -1.987804
v 1.830150 1.204625 -1.187804
v 1.830631 1.209503 -1.987804
v 1.830631 1.209503 -1.187804
v 1.832053 1.214192 -1.987804
v 1.832053 1.214192 -1.187804
v 1.834364 1.218515 -1.987804
v 1.834364 1.218515 -1.187804
v 1.837473 1.222303 -1.987804
v 1.837473 1.222303 -1.187804
v 1.841261 1.225412 -1.987804
v 1.841261 1.225412 -1.187804
v 1.845583 1.227722 -1.987804
v 1.845583 1.227722 -1.187804
v 1.850273 1.229145 -1.987804
v 1.850273 1.229145 -1.187804
v 1.855150 1.229625 -1.987804
v 1.855150 1.229625 -1.187804
v 1.860028 1.229145 -1.987804
v 1.860028 1.229145 -1.187804
v 1.864717 1.227722 -1.987804
v 1.864717 1.227722 -1.187804
v 1.869040 1.225412 -1.987804
v 1.869040 1.225412 -1.187804
v 1.872828 1.222303 -1.987804
v 1.872828 1.222303 -1.187804
v 1.875937 1.218515 -1.987804
v 1.875937 1.218515 -1.187804
v 1.878247 1.214192 -1.987804
v 1.878247 1.214192 -1.187804
v 1.879670 1.209503 -1.987804
v 1.879670 1.209503 -1.187804
v 1.041642 1.201790 -1.306042
v 1.841642 1.201790 -1.306042
v 1.041642 1.196913 -1.305562
v 1.841642 1.196913 -1.305562
v 1.041642 1.192223 -1.304139
v 1.841642 1.192223 -1.304139
v 1.041642 1.187901 -1.301829
v 1.841642 1.187901 -1.301829
v 1.041642 1.184112 -1.298720
v 1.841642 1.184112 -1.298720
v 1.041642 1.181003 -1.294931
v 1.841642 1.181003 -1.294931
v 1.041642 1.178693 -1.290609
v 1.841642 1.178693 -1.290609
v 1.041642 1.177270 -1.285919
v 1.841642 1.177270 -1.285919
v 1.041642 1.176790 -1.281042
v 1.841642 1.176790 -1.281042
v 1.041642 1.177270 -1.276165
v 1.841642 1.177270 -1.276165
v 1.041642 1.178693 -1.271475
v 1.841642 1.178693 -1.271475
v 1.041642 1.181003 -1.267153
v 1.841642 1.181003 -1.267153
v 1.041642 1.184112 -1.263364
v 1.841642 1.184112 -1.263365
v 1.041642 1.187901 -1.260255
v 1.841642 1.187901 -1.260255
v 1.041642 1.192223 -1.257945
v 1.841642 1.192223 -1.257945
v 1.041642 1.196913 -1.256522
v 1.841642 1.196913 -1.256523
v 1.041642 1.201790 -1.256042
v 1.841642 1.201790 -1.256042
v 1.041642 1.206667 -1.256522
v 1.841642 1.206667 -1.256523
v 1.041642 1.211357 -1.257945
v 1.841642 1.211357 -1.257945
v 1.041642 1.215679 -1.260255
v 1.841642 1.215679 -1.260255
v 1.041642 1.219468 -1.263364
v 1.841642 1.219468 -1.263365
v 1.041642 1.222577 -1.267153
v 1.841642 1.222577 -1.267153
v 1.041642 1.224887 -1.271475
v 1.841642 1.224887 -1.271475
v 1.041642 1.226310 -1.276165
v 1.841642 1.226310 -1.276165
v 1.041642 1.226790 -1.281042
v 1.841642 1.226790 -1.281042
v 1.041642 1.226310 -1.285919
v 1.841642 1.226310 -1.285919
v 1.041642 1.224887 -1.290609
v 1.841642 1.224887 -1.290609
v 1.041642 1.222577 -1.294931
v 1.841642 1.222577 -1.294931
v 1.041642 1.219468 -1.298720
v 1.841642 1.219468 -1.298720
v 1.041642 1.215679 -1.301829
v 1.841642 1.215679 -1.301829
v 1.041642 1.211357 -1.304139
v 1.841642 1.211357 -1.304139
v 1.041642 1.206667 -1.305562
v 1.841642 1.206667 -1.305562
v 1.079259 1.204625 -1.990647
v 1.079259 1.204625 -1.190647
v 1.078779 1.199748 -1.990647
v 1.078778 1.199748 -1.190647
v 1.077356 1.195058 -1.990647
v 1.077356 1.195058 -1.190647
v 1.075046 1.190736 -1.990647
v 1.075046 1.190736 -1.190647
v 1.071936 1.186948 -1.990647
v 1.071936 1.186948 -1.190647
v 1.068148 1.183839 -1.990647
v 1.068148 1.183839 -1.190647
v 1.063826 1.181528 -1.990647
v 1.063826 1.181528 -1.190647
v 1.059136 1.180106 -1.990647
v 1.059136 1.180106 -1.190647
v 1.054259 1.179625 -1.990647
v 1.054259 1.179625 -1.190647
v 1.049382 1.180106 -1.990647
v 1.049381 1.180106 -1.190647
v 1.044692 1.181528 -1.990647
v 1.044692 1.181528 -1.190647
v 1.040370 1.183839 -1.990647
v 1.040370 1.183839 -1.190647
v 1.036581 1.186948 -1.990647
v 1.036581 1.186948 -1.190647
v 1.033472 1.190736 -1.990647
v 1.033472 1.190736 -1.190647
v 1.031162 1.195058 -1.990647
v 1.031162 1.195058 -1.190647
v 1.029739 1.199748 -1.990647
v 1.029739 1.199748 -1.190647
v 1.029259 1.204625 -1.990647
v 1.029259 1.204625 -1.190647
v 1.029739 1.209503 -1.990647
v 1.029739 1.209503 -1.190647
v 1.031162 1.214193 -1.990647
v 1.031162 1.214193 -1.190647
v 1.033472 1.218515 -1.990647
v 1.033472 1.218515 -1.190647
v 1.036581 1.222303 -1.990647
v 1.036581 1.222303 -1.190647
v 1.040370 1.225412 -1.990647
v 1.040370 1.225412 -1.190647
v 1.044692 1.227722 -1.990647
v 1.044692 1.227722 -1.190647
v 1.049382 1.229145 -1.990647
v 1.049382 1.229145 -1.190647
v 1.054259 1.229625 -1.990647
v 1.054259 1.229625 -1.190647
v 1.059136 1.229145 -1.990647
v 1.059136 1.229145 -1.190647
v 1.063826 1.227722 -1.990647
v 1.063826 1.227722 -1.190647
v 1.068148 1.225412 -1.990647
v 1.068148 1.225412 -1.190647
v 1.071936 1.222303 -1.990647
v 1.071936 1.222303 -1.190647
v 1.075046 1.218515 -1.990647
v 1.075046 1.218515 -1.190647
v 1.077356 1.214192 -1.990647
v 1.077356 1.214192 -1.190647
v 1.078779 1.209503 -1.990647
v 1.078779 1.209503 -1.190647
v 1.069826 1.207261 -1.753225
v 1.869826 1.207261 -1.753225
v 1.069826 1.202384 -1.752745
v 1.869826 1.202384 -1.752745
v 1.069826 1.197694 -1.751322
v 1.869826 1.197694 -1.751323
v 1.069826 1.193372 -1.749012
v 1.869826 1.193372 -1.749012
v 1.069826 1.189583 -1.745903
v 1.869826 1.189583 -1.745903
v 1.069826 1.186474 -1.742115
v 1.869826 1.186474 -1.742115
v 1.069826 1.184164 -1.737792
v 1.869826 1.184164 -1.737793
v 1.069826 1.182742 -1.733103
v 1.869826 1.182742 -1.733103
v 1.069826 1.182261 -1.728225
v 1.869826 1.182261 -1.728225
v 1.069826 1.182742 -1.723348
v 1.869826 1.182742 -1.723348
v 1.069826 1.184164 -1.718658
v 1.869826 1.184164 -1.718658
v 1.069826 1.186474 -1.714336
v 1.869826 1.186474 -1.714336
v 1.069826 1.189583 -1.710548
v 1.869826 1.189583 -1.710548
v 1.069826 1.193372 -1.707439
v 1.869826 1.193372 -1.707439
v 1.069826 1.197694 -1.705128
v 1.869826 1.197694 -1.705128
v 1.069826 1.202384 -1.703706
v 1.869826 1.202384 -1.703706
v 1.069826 1.207261 -1.703225
v 1.869826 1.207261 -1.703225
v 1.069826 1.212138 -1.703706
v 1.869826 1.212138 -1.703706
v 1.069826 1.216828 -1.705128
v 1.869826 1.216828 -1.705128
v 1.069826 1.221150 -1.707439
v 1.869826 1.221150 -1.707439
v 1.069826 1.224939 -1.710548
v 1.869826 1.224939 -1.710548
v 1.069826 1.228048 -1.714336
v 1.869826 1.228048 -1.714336
v 1.069826 1.230358 -1.718658
v 1.869826 1.230358 -1.718658
v 1.069826 1.231781 -1.723348
v 1.869826 1.231781 -1.723348
v 1.069826 1.232261 -1.728225
v 1.869826 1.232261 -1.728225
v 1.069826 1.231781 -1.733103
v 1.869826 1.231781 -1.733103
v 1.069826 1.230358 -1.737792
v 1.869826 1.230358 -1.737793
v 1.069826 1.228048 -1.742115
v 1.869826 1.228048 -1.742115
v 1.069826 1.224939 -1.745903
v 1.869826 1.224939 -1.745903
v 1.069826 1.221150 -1.749012
v 1.869826 1.221150 -1.749012
v 1.069826 1.216828 -1.751322
v 1.869826 1.216828 -1.751323
v 1.069826 1.212138 -1.752745
v 1.869826 1.212138 -1.752745
vn 0.9952 -0.0980 0.0000
vn 0.9569 -0.2903 0.0000
vn 0.8819 -0.4714 0.0000
vn 0.7730 -0.6344 0.0000
vn 0.6344 -0.7730 0.0000
vn 0.4714 -0.8819 0.0000
vn 0.2903 -0.9569 0.0000
vn 0.0980 -0.9952 0.0000
vn -0.0980 -0.9952 0.0000
vn -0.2903 -0.9569 0.0000
vn -0.4714 -0.8819 0.0000
vn -0.6344 -0.7730 0.0000
vn -0.7730 -0.6344 0.0000
vn -0.8819 -0.4714 0.0000
vn -0.9569 -0.2903 0.0000
vn -0.9952 -0.0980 0.0000
vn -0.9952 0.0980 0.0000
vn -0.9569 0.2903 0.0000
vn -0.8819 0.4714 0.0000
vn -0.7730 0.6344 0.0000
vn -0.6344 0.7730 0.0000
vn -0.4714 0.8819 0.0000
vn -0.2903 0.9569 0.0000
vn -0.0980 0.9952 0.0000
vn 0.0980 0.9952 0.0000
vn 0.2903 0.9569 0.0000
vn 0.4714 0.8819 0.0000
vn 0.6344 0.7730 0.0000
vn 0.7730 0.6344 0.0000
vn 0.8819 0.4714 0.0000
vn -0.0000 0.0000 1.0000
vn 0.9952 0.0980 0.0000
vn 0.9570 0.2903 0.0000
vn -0.0000 0.0000 -1.0000
vn -0.0000 -0.0980 -0.9952
vn -0.0000 -0.2903 -0.9569
vn -0.0000 -0.4714 -0.8819
vn -0.0000 -0.6344 -0.7730
vn -0.0000 -0.7730 -0.6344
vn -0.0000 -0.8819 -0.4714
vn -0.0000 -0.9569 -0.2903
vn -0.0000 -0.9952 -0.0980
vn 0.0000 -0.9952 0.0980
vn 0.0000 -0.9569 0.2903
vn 0.0000 -0.8819 0.4714
vn 0.0000 -0.7730 0.6344
vn 0.0000 -0.6344 0.7730
vn 0.0000 -0.4714 0.8819
vn 0.0000 -0.2903 0.9569
vn 0.0000 -0.0980 0.9952
vn 0.0000 0.0980 0.9952
vn 0.0000 0.2903 0.9569
vn 0.0000 0.4714 0.8819
vn 0.0000 0.6344 0.7730
vn 0.0000 0.7730 0.6344
vn 0.0000 0.8819 0.4714
vn -0.0000 0.9569 0.2903
vn -0.0000 0.9952 0.0980
vn -0.0000 0.9952 -0.0980
vn -0.0000 0.9569 -0.2903
vn -0.0000 0.8819 -0.4714
vn -0.0000 0.7730 -0.6344
vn -0.0000 0.6344 -0.7730
vn -0.0000 0.4714 -0.8819
vn 1.0000 -0.0000 0.0000
vn -0.0000 0.0980 -0.9952
vn -0.0000 0.2903 -0.9569
vn -1.0000 -0.0000 0.0000
vn 0.9569 0.2903 0.0000
usemtl Material.025
s off
f 1//1 2//1 4//1 3//1
f 3//2 4//2 6//2 5//2
f 5//3 6//3 8//3 7//3
f 7//4 8//4 10//4 9//4
f 9//5 10//5 12//5 11//5
f 11//6 12//6 14//6 13//6
f 13//7 14//7 16//7 15//7
f 15//8 16//8 18//8 17//8
f 17//9 18//9 20//9 19//9
f 19//10 20//10 22//10 21//10
f 21//11 22//11 24//11 23//11
f 23//12 24//12 26//12 25//12
f 25//13 26//13 28//13 27//13
f 27//14 28//14 30//14 29//14
f 29//15 30//15 32//15 31//15
f 31//16 32//16 34//16 33//16
f 33//17 34//17 36//17 35//17
f 35//18 36//18 38//18 37//18
f 37//19 38//19 40//19 39//19
f 39//20 40//20 42//20 41//20
f 41//21 42//21 44//21 43//21
f 43//22 44//22 46//22 45//22
f 45//23 46//23 48//23 47//23
f 47//24 48//24 50//24 49//24
f 49//25 50//25 52//25 51//25
f 51//26 52//26 54//26 53//26
f 53//27 54//27 56//27 55//27
f 55//28 56//28 58//28 57//28
f 57//29 58//29 60//29 59//29
f 59//30 60//30 62//30 61//30
f 4//31 2//31 64//31 62//31 60//31 58//31 56//31 54//31 52//31 50//31 48//31 46//31 44//31 42//31 40//31 38//31 36//31 34//31 32//31 30//31 28//31 26//31 24//31 22//31 20//31 18//31 16//31 14//31 12//31 10//31 8//31 6//31
f 63//32 64//32 2//32 1//32
f 61//33 62//33 64//33 63//33
f 1//34 3//34 5//34 7//34 9//34 11//34 13//34 15//34 17//34 19//34 21//34 23//34 25//34 27//34 29//34 31//34 33//34 35//34 37//34 39//34 41//34 43//34 45//34 47//34 49//34 51//34 53//34 55//34 57//34 59//34 61//34 63//34
f 65//35 66//35 68//35 67//35
f 67//36 68//36 70//36 69//36
f 69//37 70//37 72//37 71//37
f 71//38 72//38 74//38 73//38
f 73//39 74//39 76//39 75//39
f 75//40 76//40 78//40 77//40
f 77//41 78//41 80//41 79//41
f 79//42 80//42 82//42 81//42
f 81//43 82//43 84//43 83//43
f 83//44 84//44 86//44 85//44
f 85//45 86//45 88//45 87//45
f 87//46 88//46 90//46 89//46
f 89//47 90//47 92//47 91//47
f 91//48 92//48 94//48 93//48
f 93//49 94//49 96//49 95//49
f 95//50 96//50 98//50 97//50
f 97//51 98//51 100//51 99//51
f 99//52 100//52 102//52 101//52
f 101//53 102//53 104//53 103//53
f 103//54 104//54 106//54 105//54
f 105//55 106//55 108//55 107//55
f 107//56 108//56 110//56 109//56
f 109//57 110//57 112//57 111//57
f 111//58 112//58 114//58 113//58
f 113//59 114//59 116//59 115//59
f 115//60 116//60 118//60 117//60
f 117//61 118//61 120//61 119//61
f 119//62 120//62 122//62 121//62
f 121//63 122//63 124//63 123//63
f 123//64 124//64 126//64 125//64
f 68//65 66//65 128//65 126//65 124//65 122//65 120//65 118//65 116//65 114//65 112//65 110//65 108//65 106//65 104//65 102//65 100//65 98//65 96//65 94//65 92//65 90//65 88//65 86//65 84//65 82//65 80//65 78//65 76//65 74//65 72//65 70//65
f 127//66 128//66 66//66 65//66
f 125//67 126//67 128//67 127//67
f 65//68 67//68 69//68 71//68 73//68 75//68 77//68 79//68 81//68 83//68 85//68 87//68 89//68 91//68 93//68 95//68 97//68 99//68 101//68 103//68 105//68 107//68 109//68 111//68 113//68 115//68 117//68 119//68 121//68 123//68 125//68 127//68
f 129//1 130//1 132//1 131//1
f 131//2 132//2 134//2 133//2
f 133//3 134//3 136//3 135//3
f 135//4 136//4 138//4 137//4
f 137//5 138//5 140//5 139//5
f 139//6 140//6 142//6 141//6
f 141//7 142//7 144//7 143//7
f 143//8 144//8 146//8 145//8
f 145//9 146//9 148//9 147//9
f 147//10 148//10 150//10 149//10
f 149//11 150//11 152//11 151//11
f 151//12 152//12 154//12 153//12
f 153//13 154//13 156//13 155//13
f 155//14 156//14 158//14 157//14
f 157//15 158//15 160//15 159//15
f 159//16 160//16 162//16 161//16
f 161//17 162//17 164//17 163//17
f 163//18 164//18 166//18 165//18
f 165//19 166//19 168//19 167//19
f 167//20 168//20 170//20 169//20
f 169//21 170//21 172//21 171//21
f 171//22 172//22 174//22 173//22
f 173//23 174//23 176//23 175//23
f 175//24 176//24 178//24 177//24
f 177//25 178//25 180//25 179//25
f 179//26 180//26 182//26 181//26
f 181//27 182//27 184//27 183//27
f 183//28 184//28 186//28 185//28
f 185//29 186//29 188//29 187//29
f 187//30 188//30 190//30 189//30
f 132//31 130//31 192//31 190//31 188//31 186//31 184//31 182//31 180//31 178//31 176//31 174//31 172//31 170//31 168//31 166//31 164//31 162//31 160//31 158//31 156//31 154//31 152//31 150//31 148//31 146//31 144//31 142//31 140//31 138//31 136//31 134//31
f 191//32 192//32 130//32 129//32
f 189//69 190//69 192//69 191//69
f 129//34 131//34 133//34 135//34 137//34 139//34 141//34 143//34 145//34 147//34 149//34 151//34 153//34 155//34 157//34 159//34 161//34 163//34 165//34 167//34 169//34 171//34 173//34 175//34 177//34 179//34 181//34 183//34 185//34 187//34 189//34 191//34
f 193//35 194//35 196//35 195//35
f 195//36 196//36 198//36 197//36
f 197//37 198//37 200//37 199//37
f 199//38 200//38 202//38 201//38
f 201//39 202//39 204//39 203//39
f 203//40 204//40 206//40 205//40
f 205//41 206//41 208//41 207//41
f 207//42 208//42 210//42 209//42
f 209//43 210//43 212//43 211//43
f 211//44 212//44 214//44 213//44
f 213//45 214//45 216//45 215//45
f 215//46 216//46 218//46 217//46
f 217//47 218//47 220//47 219//47
f 219//48 220//48 222//48 221//48
f 221//49 222//49 224//49 223//49
f 223//50 224//50 226//50 225//50
f 225//51 226//51 228//51 227//51
f 227//52 228//52 230//52 229//52
f 229//53 230//53 232//53 231//53
f 231//54 232//54 234//54 233//54
f 233//55 234//55 236//55 235//55
f 235//56 236//56 238//56 237//56
f 237//57 238//57 240//57 239//57
f 239//58 240//58 242//58 241//58
f 241//59 242//59 244//59 243//59
f 243//60 244//60 246//60 245//60
f 245//61 246//61 248//61 247//61
f 247//62 248//62 250//62 249//62
f 249//63 250//63 252//63 251//63
f 251//64 252//64 254//64 253//64
f 196//65 194//65 256//65 254//65 252//65 250//65 248//65 246//65 244//65 242//65 240//65 238//65 236//65 234//65 232//65 230//65 228//65 226//65 224//65 222//65 220//65 218//65 216//65 214//65 212//65 210//65 208//65 206//65 204//65 202//65 200//65 198//65
f 255//66 256//66 194//66 193//66
f 253//67 254//67 256//67 255//67
f 193//68 195//68 197//68 199//68 201//68 203//68 205//68 207//68 209//68 211//68 213//68 215//68 217//68 219//68 221//68 223//68 225//68 227//68 229//68 231//68 233//68 235//68 237//68 239//68 241//68 243//68 245//68 247//68 249//68 251//68 253//68 255//68
