# Blender v2.79 (sub 0) OBJ File: ''
# www.blender.org
mtllib toalla.mtl
o toalla_Cube.076
v -0.410332 0.278259 5.741864
v -0.410332 0.358149 5.746050
v -0.410332 0.382931 3.744605
v -0.410332 0.462821 3.748791
v 0.589668 0.278259 5.741864
v 0.589668 0.358149 5.746050
v 0.589668 0.382931 3.744605
v 0.589668 0.462821 3.748791
vn -1.0000 0.0000 0.0000
vn 0.0000 0.0523 -0.9986
vn 1.0000 0.0000 0.0000
vn 0.0000 -0.0523 0.9986
vn 0.0000 -0.9986 -0.0523
vn 0.0000 0.9986 0.0523
usemtl Material.136
s off
f 2//1 4//1 3//1 1//1
f 4//2 8//2 7//2 3//2
f 8//3 6//3 5//3 7//3
f 6//4 2//4 1//4 5//4
f 1//5 3//5 7//5 5//5
f 6//6 8//6 4//6 2//6
