# Blender v2.79 (sub 0) OBJ File: ''
# www.blender.org
mtllib vallas.mtl
o vallas_Cube.022
v -7.860397 0.000000 8.126534
v -7.860397 2.000000 8.126534
v -7.860397 0.000000 -8.073469
v -7.860397 2.000000 -8.073469
v -7.830398 0.000000 8.126534
v -7.830398 2.000000 8.126534
v -7.830398 0.000000 -8.073469
v -7.830398 2.000000 -8.073469
v 8.072007 0.000000 8.161972
v 8.072007 2.000000 8.161972
v 8.072007 0.000000 -8.038029
v 8.072007 2.000000 -8.038029
v 8.102007 0.000000 8.161972
v 8.102007 2.000000 8.161972
v 8.102007 0.000000 -8.038029
v 8.102007 2.000000 -8.038029
v -7.891951 0.000000 -7.969543
v -7.891951 2.000000 -7.969543
v -7.891951 0.000000 -7.999543
v -7.891951 2.000000 -7.999543
v 8.098049 0.000000 -7.969543
v 8.098049 2.000000 -7.969543
v 8.098049 0.000000 -7.999543
v 8.098049 2.000000 -7.999543
v -7.929684 0.000000 8.122049
v -7.929684 2.000000 8.122049
v -7.929684 0.000000 8.092049
v -7.929684 2.000000 8.092049
v 8.060293 0.000000 8.122049
v 8.060293 2.000000 8.122049
v 8.060293 0.000000 8.092049
v 8.060293 2.000000 8.092049
vn -1.0000 0.0000 0.0000
vn 0.0000 0.0000 -1.0000
vn 1.0000 0.0000 0.0000
vn 0.0000 0.0000 1.0000
vn 0.0000 -1.0000 0.0000
vn 0.0000 1.0000 0.0000
usemtl None
s off
f 2//1 4//1 3//1 1//1
f 4//2 8//2 7//2 3//2
f 8//3 6//3 5//3 7//3
f 6//4 2//4 1//4 5//4
f 1//5 3//5 7//5 5//5
f 6//6 8//6 4//6 2//6
f 10//1 12//1 11//1 9//1
f 12//2 16//2 15//2 11//2
f 16//3 14//3 13//3 15//3
f 14//4 10//4 9//4 13//4
f 9//5 11//5 15//5 13//5
f 14//6 16//6 12//6 10//6
f 18//1 20//1 19//1 17//1
f 20//2 24//2 23//2 19//2
f 24//3 22//3 21//3 23//3
f 22//4 18//4 17//4 21//4
f 17//5 19//5 23//5 21//5
f 22//6 24//6 20//6 18//6
f 26//1 28//1 27//1 25//1
f 28//2 32//2 31//2 27//2
f 32//3 30//3 29//3 31//3
f 30//4 26//4 25//4 29//4
f 25//5 27//5 31//5 29//5
f 30//6 32//6 28//6 26//6
